<svg id="eE1ZTBKzVmj1" xmlns="http://www.w3.org/2000/svg" xmlns:xlink="http://www.w3.org/1999/xlink" viewBox="0 0 1278 1452" shape-rendering="geometricPrecision" text-rendering="geometricPrecision"><defs><linearGradient id="eE1ZTBKzVmj6-fill" x1="-55.9589" y1="-198.041" x2="78.9749" y2="295.841" spreadMethod="pad" gradientUnits="userSpaceOnUse" gradientTransform="translate(0 0)"><stop id="eE1ZTBKzVmj6-fill-0" offset="0%" stop-color="rgba(255,255,255,0.7)"/><stop id="eE1ZTBKzVmj6-fill-1" offset="66.7914%" stop-color="rgba(249,249,249,0.175336)"/><stop id="eE1ZTBKzVmj6-fill-2" offset="100%" stop-color="rgba(249,249,249,0.1)"/><stop id="eE1ZTBKzVmj6-fill-3" offset="100%" stop-color="rgba(255,255,255,0.2)"/></linearGradient><linearGradient id="eE1ZTBKzVmj7-stroke" x1="-3.5" y1="-0.5" x2="175" y2="283.5" spreadMethod="pad" gradientUnits="userSpaceOnUse" gradientTransform="translate(0 0)"><stop id="eE1ZTBKzVmj7-stroke-0" offset="0%" stop-color="#fff"/><stop id="eE1ZTBKzVmj7-stroke-1" offset="100%" stop-color="rgba(255,255,255,0.1)"/></linearGradient><linearGradient id="eE1ZTBKzVmj9-fill" x1="0" y1="-0.344961" x2="178" y2="283.903039" spreadMethod="pad" gradientUnits="userSpaceOnUse" gradientTransform="translate(0 0)"><stop id="eE1ZTBKzVmj9-fill-0" offset="0%" stop-color="rgba(255,255,255,0.4)"/><stop id="eE1ZTBKzVmj9-fill-1" offset="100%" stop-color="rgba(255,255,255,0.1)"/></linearGradient><linearGradient id="eE1ZTBKzVmj9-stroke" x1="0" y1="9.155039" x2="167.5" y2="283.655039" spreadMethod="pad" gradientUnits="userSpaceOnUse" gradientTransform="translate(0 0)"><stop id="eE1ZTBKzVmj9-stroke-0" offset="0%" stop-color="#fff"/><stop id="eE1ZTBKzVmj9-stroke-1" offset="100%" stop-color="rgba(255,255,255,0.1)"/></linearGradient><linearGradient id="eE1ZTBKzVmj11-stroke" x1="9.89486" y1="0.25" x2="9.89486" y2="20.0397" spreadMethod="pad" gradientUnits="userSpaceOnUse" gradientTransform="translate(0 0)"><stop id="eE1ZTBKzVmj11-stroke-0" offset="0%" stop-color="#fff"/><stop id="eE1ZTBKzVmj11-stroke-1" offset="47.9167%" stop-color="rgba(0,0,0,0.5)"/><stop id="eE1ZTBKzVmj11-stroke-2" offset="93.75%" stop-color="#fff"/></linearGradient><linearGradient id="eE1ZTBKzVmj12-stroke" x1="9.89486" y1="0.25" x2="9.89486" y2="20.0397" spreadMethod="pad" gradientUnits="userSpaceOnUse" gradientTransform="translate(0 0)"><stop id="eE1ZTBKzVmj12-stroke-0" offset="0%" stop-color="#fff"/><stop id="eE1ZTBKzVmj12-stroke-1" offset="47.9167%" stop-color="rgba(0,0,0,0.5)"/><stop id="eE1ZTBKzVmj12-stroke-2" offset="93.75%" stop-color="#fff"/></linearGradient><linearGradient id="eE1ZTBKzVmj23-fill" x1="0" y1="0" x2="178" y2="284.248" spreadMethod="pad" gradientUnits="userSpaceOnUse" gradientTransform="translate(0 0)"><stop id="eE1ZTBKzVmj23-fill-0" offset="0%" stop-color="rgba(255,255,255,0.4)"/><stop id="eE1ZTBKzVmj23-fill-1" offset="100%" stop-color="rgba(255,255,255,0.1)"/></linearGradient><linearGradient id="eE1ZTBKzVmj24-stroke" x1="0" y1="9.155039" x2="167.5" y2="283.655039" spreadMethod="pad" gradientUnits="userSpaceOnUse" gradientTransform="translate(0 0)"><stop id="eE1ZTBKzVmj24-stroke-0" offset="0%" stop-color="#fff"/><stop id="eE1ZTBKzVmj24-stroke-1" offset="100%" stop-color="rgba(255,255,255,0.1)"/></linearGradient><linearGradient id="eE1ZTBKzVmj26-fill" x1="781.092" y1="99.5" x2="947.66" y2="440.832" spreadMethod="pad" gradientUnits="userSpaceOnUse" gradientTransform="translate(0 0)"><stop id="eE1ZTBKzVmj26-fill-0" offset="0%" stop-color="#5ae5ea"/><stop id="eE1ZTBKzVmj26-fill-1" offset="29.487%" stop-color="rgba(90,229,234,0)"/><stop id="eE1ZTBKzVmj26-fill-2" offset="100%" stop-color="#5ae5ea"/></linearGradient><linearGradient id="eE1ZTBKzVmj37-stroke" x1="9.89486" y1="0.25" x2="9.89486" y2="20.0397" spreadMethod="pad" gradientUnits="userSpaceOnUse" gradientTransform="translate(0 0)"><stop id="eE1ZTBKzVmj37-stroke-0" offset="0%" stop-color="#fff"/><stop id="eE1ZTBKzVmj37-stroke-1" offset="47.9167%" stop-color="rgba(0,0,0,0.5)"/><stop id="eE1ZTBKzVmj37-stroke-2" offset="93.75%" stop-color="#fff"/></linearGradient><linearGradient id="eE1ZTBKzVmj38-stroke" x1="9.89486" y1="0.25" x2="9.89486" y2="20.0397" spreadMethod="pad" gradientUnits="userSpaceOnUse" gradientTransform="translate(0 0)"><stop id="eE1ZTBKzVmj38-stroke-0" offset="0%" stop-color="#fff"/><stop id="eE1ZTBKzVmj38-stroke-1" offset="47.9167%" stop-color="rgba(0,0,0,0.5)"/><stop id="eE1ZTBKzVmj38-stroke-2" offset="93.75%" stop-color="#fff"/></linearGradient><linearGradient id="eE1ZTBKzVmj58-fill" x1="991.191" y1="239.934" x2="989.303" y2="347.043" spreadMethod="pad" gradientUnits="userSpaceOnUse" gradientTransform="translate(0 0)"><stop id="eE1ZTBKzVmj58-fill-0" offset="0%" stop-color="#fff"/><stop id="eE1ZTBKzVmj58-fill-1" offset="100%" stop-color="rgba(255,255,255,0)"/></linearGradient><radialGradient id="eE1ZTBKzVmj60-fill" cx="0" cy="0" r="1" spreadMethod="pad" gradientUnits="userSpaceOnUse" gradientTransform="matrix(-4.38547 64.8202 -64.8202 -4.38547 747.462 177.049)"><stop id="eE1ZTBKzVmj60-fill-0" offset="0.887753%" stop-color="#def9fa"/><stop id="eE1ZTBKzVmj60-fill-1" offset="17.23%" stop-color="#bef3f5"/><stop id="eE1ZTBKzVmj60-fill-2" offset="42.04%" stop-color="#9dedf0"/><stop id="eE1ZTBKzVmj60-fill-3" offset="55.12%" stop-color="#7de7eb"/><stop id="eE1ZTBKzVmj60-fill-4" offset="71.54%" stop-color="#5ce1e6"/><stop id="eE1ZTBKzVmj60-fill-5" offset="100%" stop-color="#33bbcf"/></radialGradient><radialGradient id="eE1ZTBKzVmj61-fill" cx="0" cy="0" r="1" spreadMethod="pad" gradientUnits="userSpaceOnUse" gradientTransform="matrix(-2.95259 43.6413 -43.6413 -2.95259 1096.98 536.271)"><stop id="eE1ZTBKzVmj61-fill-0" offset="0.887753%" stop-color="#def9fa"/><stop id="eE1ZTBKzVmj61-fill-1" offset="17.23%" stop-color="#bef3f5"/><stop id="eE1ZTBKzVmj61-fill-2" offset="42.04%" stop-color="#9dedf0"/><stop id="eE1ZTBKzVmj61-fill-3" offset="55.12%" stop-color="#7de7eb"/><stop id="eE1ZTBKzVmj61-fill-4" offset="71.54%" stop-color="#5ce1e6"/><stop id="eE1ZTBKzVmj61-fill-5" offset="100%" stop-color="#33bbcf"/></radialGradient><radialGradient id="eE1ZTBKzVmj62-fill" cx="0" cy="0" r="1" spreadMethod="pad" gradientUnits="userSpaceOnUse" gradientTransform="matrix(-1.38946 20.5372 -20.5372 -1.38946 761.364 593.421)"><stop id="eE1ZTBKzVmj62-fill-0" offset="0.887753%" stop-color="#def9fa"/><stop id="eE1ZTBKzVmj62-fill-1" offset="17.23%" stop-color="#bef3f5"/><stop id="eE1ZTBKzVmj62-fill-2" offset="42.04%" stop-color="#9dedf0"/><stop id="eE1ZTBKzVmj62-fill-3" offset="55.12%" stop-color="#7de7eb"/><stop id="eE1ZTBKzVmj62-fill-4" offset="71.54%" stop-color="#5ce1e6"/><stop id="eE1ZTBKzVmj62-fill-5" offset="100%" stop-color="#33bbcf"/></radialGradient></defs><g transform="translate(-262.889651 28.231723)"><rect width="669" height="444" rx="0" ry="0" transform="translate(618 371)" fill="none"/><g><g id="eE1ZTBKzVmj5"><rect width="178" height="284" rx="20" ry="20" transform="matrix(.866025 0.5-.866025 0.5 965.953 363)" fill="url(#eE1ZTBKzVmj6-fill)"/><rect width="177" height="283" rx="19.5" ry="19.5" transform="matrix(.866025 0.5-.866025 0.5 965.952988 363.5)" fill="none" stroke="url(#eE1ZTBKzVmj7-stroke)"/></g><g id="eE1ZTBKzVmj8" transform="translate(1.969299-5.760569)"><rect width="177.31" height="283.558" rx="13.4535" ry="13.4535" transform="matrix(.866025 0.5-.866025 0.5 984.168255 281.34448)" fill="url(#eE1ZTBKzVmj9-fill)" stroke="url(#eE1ZTBKzVmj9-stroke)" stroke-width="0.689923"/><g opacity="0.9"><rect width="19.2897" height="19.2897" rx="9.64486" ry="9.64486" transform="matrix(-.866025-.5 0.866026-.5 892.939493 497.621)" opacity="0.75" fill="none" stroke="url(#eE1ZTBKzVmj11-stroke)" stroke-width="0.5"/><rect width="19.2897" height="19.2897" rx="9.64486" ry="9.64486" transform="matrix(-.866025-.5 0.866026-.5 882.593493 491.647)" opacity="0.7" fill="none" stroke="url(#eE1ZTBKzVmj12-stroke)" stroke-width="0.5"/></g><g><path d="M788.181,415.924l-6.324,2.194-1.004-.579l2.847-2.877-4.983,1.643-1.004-.579l3.8-3.651.896.517-3.241,2.881l5.227-1.734.904.521-3.004,3.018l4.99-1.871.896.517Zm.503,4.869l-2.137-1.234-1.484.41-.875-.505l6.847-1.801.94.543-3.127,3.949-.874-.505.71-.857Zm.401-.497l1.527-1.85-3.205.881l1.678.969Zm5.231,2.06l-.329,2.765-.997-.575.344-2.509-2.344,1.354-.818-.472l5.062-2.922.818.471-2.316,1.338l4.323-.178.99.571-4.733.157Zm8.071,6.059c-.249.143-.54.242-.875.298-.33.052-.681.045-1.054-.021s-.736-.202-1.09-.406c-.344-.198-.593-.411-.746-.637-.148-.229-.193-.454-.136-.675.058-.221.218-.421.481-.6l.874.505c-.196.141-.291.303-.286.488.009.188.152.362.43.522.248.143.506.215.774.215.273.003.514-.056.724-.178.182-.105.28-.219.294-.344.019-.126-.012-.252-.093-.376s-.208-.286-.38-.485c-.215-.24-.373-.447-.473-.62-.096-.172-.117-.352-.065-.543.053-.19.234-.375.545-.554.273-.158.579-.257.918-.298.339-.042.688-.023,1.047.057.363.078.707.21,1.032.398.516.298.801.606.853.923.058.32-.093.608-.451.865l-.882-.509c.158-.13.229-.276.215-.439-.005-.163-.134-.317-.387-.463-.23-.133-.473-.205-.732-.216-.253-.013-.49.043-.709.17-.173.099-.268.21-.287.331-.015.119.017.239.093.36.086.122.213.28.38.476.22.243.378.453.473.63.105.176.129.361.072.554-.053.196-.239.387-.559.572Zm6.03-.807l-3.004,1.734c-.449.26-.686.509-.71.75-.019.242.151.467.509.674.354.205.739.3,1.155.286.42-.011.855-.146,1.305-.406l3.004-1.734.817.472-3.004,1.734c-.693.4-1.398.6-2.115.6-.712-.002-1.362-.173-1.95-.513-.583-.337-.875-.709-.875-1.118.005-.411.354-.816,1.047-1.217l3.004-1.734.817.472Zm3.778,8.026l-.817-.472l1.276-3.576-3.735,2.156-.818-.472l5.055-2.918.817.472-1.29,3.585l3.75-2.165.817.472-5.055,2.918Zm5.822,2.095l-2.137-1.234-1.484.41-.874-.505l6.847-1.801.939.542-3.126,3.949-.875-.505.71-.856Zm.402-.497l1.527-1.851-3.205.882l1.678.969Zm3.747,4.159l.76-1.896-.581-.336-2.022,1.168-.817-.472l5.062-2.923l1.785,1.031c.578.334.875.668.889,1.002.019.336-.203.639-.667.906-.396.229-.834.352-1.312.369-.473.019-.956-.072-1.448-.273l-.731,1.953-.918-.529Zm.76-2.567l.903.522c.66.38,1.281.403,1.864.066.278-.16.411-.331.402-.513c0-.183-.17-.372-.509-.568l-.904-.521-1.756,1.014Zm7.461,1.468l-5.062,2.923-.817-.472l5.062-2.923.817.472Z" fill="#fff"/></g><g><path d="M767.275,420.415c-.677.391-1.093.76-1.248,1.107-.156.347.041.68.591.997s1.125.431,1.727.341c.605-.087,1.247-.326,1.924-.717.669-.386,1.079-.754,1.231-1.104.155-.347-.042-.679-.592-.997-.55-.317-1.125-.431-1.727-.341-.597.087-1.233.325-1.906.714Zm2.456,1.417c-.347.201-.663.354-.95.459-.279.106-.558.159-.836.159-.279,0-.55-.076-.813-.228-.259-.149-.388-.304-.388-.465s.089-.324.268-.487c.188-.163.455-.345.801-.545.343-.198.653-.349.932-.455.283-.104.562-.154.837-.152.278,0,.547.075.806.224.263.152.395.308.395.469.004.159-.086.319-.269.48-.18.163-.44.344-.783.541Zm4.548,1.523c.22-.164.327-.325.323-.483.004-.159-.115-.308-.358-.449-.339-.195-.727-.268-1.166-.217-.434.053-.936.244-1.505.573l-.215.131c.298-.104.625-.134.98-.09.358.041.683.146.974.314.418.241.619.502.603.783-.012.283-.243.554-.693.814-.263.152-.554.26-.872.324-.315.062-.644.068-.986.018-.335-.051-.66-.167-.974-.349-.602-.347-.827-.696-.675-1.045.155-.347.557-.708,1.207-1.083.748-.433,1.43-.688,2.043-.766.621-.078,1.205.04,1.751.355.402.233.597.476.585.732-.008.257-.175.503-.502.738l-.52-.3Zm-3.417-.09c-.291.168-.452.358-.484.569-.024.212.133.415.472.611.279.161.583.242.914.245.335,0,.651-.087.95-.259.323-.186.484-.376.484-.569.004-.196-.141-.379-.436-.549-.167-.096-.361-.169-.58-.217s-.446-.06-.681-.035c-.231.023-.444.091-.639.204Zm9.154.469l-8.287,2.895-.526-.304l8.281-2.898.532.307Zm-4.935,3.167c1.131.129,2.123.182,2.975.159.857-.025,1.478-.149,1.865-.373.239-.138.368-.284.388-.438.028-.154-.094-.309-.364-.465-.279-.161-.58-.231-.903-.211-.318.019-.641.113-.968.283l-.537-.31c.498-.256,1.003-.38,1.517-.373.518.005.984.127,1.398.366.395.227.602.469.622.724s-.164.495-.55.718c-.319.184-.747.311-1.285.383-.529.071-1.091.098-1.684.082-.586-.016-1.14-.062-1.661-.138l2.139,1.235-.449.259-2.897-1.673.394-.228Zm5.194,1.019c-.677.391-1.093.76-1.248,1.108-.156.347.041.679.591.997.55.317,1.125.431,1.727.341.605-.087,1.247-.326,1.924-.717.669-.387,1.079-.755,1.231-1.104.155-.348-.042-.68-.592-.997-.55-.318-1.125-.431-1.727-.342-.597.088-1.232.326-1.906.714Zm2.456,1.418c-.346.2-.663.353-.95.459-.279.106-.558.159-.836.159-.279,0-.55-.076-.813-.228-.259-.15-.388-.305-.388-.466s.089-.323.269-.486c.187-.163.454-.345.8-.545.343-.198.653-.35.932-.456.283-.103.562-.154.837-.151.279,0,.547.074.806.224.263.152.395.308.395.469.004.159-.086.319-.269.48-.179.163-.44.343-.783.541Zm-.59,1.64c1.131.128,2.123.181,2.976.158.856-.025,1.477-.149,1.864-.372.239-.138.368-.284.388-.438.028-.155-.093-.31-.364-.466-.279-.161-.58-.231-.903-.211-.318.019-.641.113-.967.283l-.538-.31c.498-.255,1.004-.38,1.517-.373.518.005.984.127,1.399.366.394.228.601.469.621.724.02.256-.163.495-.55.718-.318.184-.747.312-1.284.383-.53.071-1.092.099-1.685.083-.586-.017-1.139-.063-1.661-.138l2.139,1.235-.448.258-2.898-1.673.394-.227Zm3.874,1.601l.454-.262l4.983-.379.586.338-2.802,1.618.621.359-.472.272-.621-.359-.968.559-.55-.317.968-.559-2.199-1.27Zm4.846-.217l-3.8.276l1.661.959l2.139-1.235Z" fill="#fff" fill-opacity="0.7"/></g><g><rect width="23.8605" height="18.0421" rx="1.5" ry="1.5" transform="matrix(.866025 0.5-.866025 0.5 885.199988 415.072)" fill="none" stroke="#fff"/></g><g style="mix-blend-mode:overlay"><path d="M873.996,434.599c-1.197-.16-3.661-.836-3.932-2.266m2.307,4.831c-1.858-.275-5.811-1.438-6.759-3.895m5.541,6.297c-2.475-.392-7.845-2.037-9.525-5.488m7.792,7.832c-3.015-.411-9.608-2.353-11.86-6.834" fill="none" stroke="#fff" stroke-width="1.37985" stroke-linecap="round" stroke-linejoin="round"/></g></g><g id="eE1ZTBKzVmj21" transform="translate(0-12.373977)"><g><rect width="178" height="284.248" rx="13.7985" ry="13.7985" transform="matrix(.866025 0.5-.866025 0.5 958.76 189)" fill="url(#eE1ZTBKzVmj23-fill)"/><rect width="177.31" height="283.558" rx="13.4535" ry="13.4535" transform="matrix(.866025 0.5-.866025 0.5 958.760255 189.34448)" fill="none" stroke="url(#eE1ZTBKzVmj24-stroke)" stroke-width="0.689923"/></g><g><path d="M802.217,279.38l154.153,89-65.724,37.946c-11.267,6.504-16.9,9.757-23.9,9.757s-12.633-3.253-23.899-9.757L736.493,344.923c-11.266-6.505-16.899-9.757-16.899-13.799c0-4.041,5.633-7.294,16.899-13.798l65.724-37.946Z" fill="url(#eE1ZTBKzVmj26-fill)"/></g><g><g><path d="M1033.74,262.396l-7.59,4.384-1.53-.882l3.3-1.906-3.24-1.875-3.3,1.906-1.52-.876l7.59-4.383l1.52.875-3.08,1.776l3.25,1.875l3.08-1.776l1.52.882Zm2.57,3.284c.58.335.98.706,1.2,1.111.22.41.23.826.03,1.249-.2.418-.6.807-1.23,1.167-.62.36-1.3.596-2.02.708s-1.44.105-2.16-.019c-.7-.124-1.35-.354-1.93-.689s-.98-.708-1.2-1.118c-.21-.41-.22-.824-.02-1.242.19-.418.6-.807,1.22-1.167.63-.36,1.3-.596,2.03-.708.73-.116,1.44-.112,2.15.013.71.128,1.35.36,1.93.695Zm-1.31.758c-.42-.245-.93-.365-1.53-.361-.58,0-1.16.164-1.73.491-.56.327-.85.662-.86,1.006c0,.339.21.631.64.875.42.245.92.367,1.51.367.6-.004,1.18-.17,1.74-.497.57-.327.85-.66.85-1c.01-.343-.2-.637-.62-.881Zm8.19,3.214c.58.335.98.706,1.2,1.111.22.41.23.826.03,1.248-.2.418-.6.808-1.23,1.168-.62.36-1.3.596-2.02.708-.72.111-1.44.105-2.16-.019-.7-.124-1.35-.354-1.93-.689-.58-.336-.98-.708-1.2-1.118-.21-.41-.22-.824-.02-1.242.19-.418.6-.807,1.22-1.167.63-.36,1.3-.596,2.02-.708.74-.116,1.45-.112,2.16.012.71.129,1.35.36,1.93.696Zm-1.31.757c-.42-.244-.93-.364-1.53-.36-.59,0-1.16.164-1.73.491s-.85.662-.86,1.006c0,.339.21.631.64.875.42.244.92.366,1.51.366.6-.004,1.18-.169,1.74-.496.57-.327.85-.661.85-1c.01-.344-.2-.637-.62-.882Z" fill="#fff"/><path d="M1049.44,275.704c.36.318.51.656.44,1.012-.06.356-.32.666-.78.931-.63.369-1.36.536-2.16.503-.79-.033-1.59-.283-2.4-.751l-3.26-1.882l7.6-4.383l3.19,1.844c.77.443,1.19.879,1.26,1.31.08.435-.19.828-.8,1.18-.47.273-.98.424-1.53.453-.55.033-1.07-.039-1.56-.217Zm-2.23-1.857l1.37.789c.38.219.75.337,1.1.354.38.016.72-.067,1.04-.249.31-.182.46-.379.44-.59s-.24-.432-.64-.664l-1.34-.776-1.97,1.136Zm-1.73,2.664c.4.232.79.36,1.18.385.4.021.76-.066,1.1-.261s.48-.408.44-.64c-.03-.231-.24-.463-.65-.695l-1.43-.826-2.08,1.205l1.44.832Zm10.99.806c.5.29.81.606.93.95.13.343.06.675-.19.993l1.24-.714l1.5.87-5.96,3.439-1.5-.869l1.25-.72c-.56.145-1.13.184-1.74.118-.59-.071-1.14-.251-1.64-.54-.5-.29-.83-.621-.99-.994-.16-.372-.12-.757.11-1.155.24-.397.67-.776,1.3-1.136.62-.36,1.27-.609,1.96-.745.69-.137,1.36-.16,2.01-.068.64.091,1.22.281,1.72.571Zm-.85,1.037c-.47-.273-1.01-.404-1.6-.391-.6.012-1.17.173-1.7.484-.54.31-.82.637-.84.981-.02.339.21.646.69.919.45.265.99.393,1.59.385.61-.008,1.18-.164,1.71-.466.53-.306.8-.635.8-.987.03-.352-.19-.66-.65-.925Zm9.34,3.854c.69.398,1.01.845.97,1.342-.04.496-.47.981-1.29,1.453l-3.46,1.999-1.51-.869l3.29-1.9c.47-.274.72-.555.73-.845.02-.294-.18-.563-.6-.807-.43-.248-.91-.366-1.45-.354s-1.07.17-1.59.472l-3.16,1.825-1.52-.875l5.96-3.44l1.51.875-1.19.69c.56-.141,1.13-.172,1.71-.093.59.078,1.13.254,1.6.527Zm1.04,7.576l.63-2.639-2.6,1.503-1.52-.876l7.96-4.595l1.52.876-4.48,2.583l4.43-.298l1.8,1.037-5.48.267-.42,3.21-1.84-1.068Z" fill="#5ce1e6"/></g><g><path d="M1022.1,247.264c-1.9-1.091-4.3-1.835-6.93-2.136-2.62-.301-5.34-.147-7.81.444s-4.58,1.591-6.07,2.875c-1.481,1.284-2.274,2.793-2.274,4.337c0,1.543.793,3.053,2.274,4.336c1.49,1.284,3.6,2.284,6.07,2.875s5.19.745,7.81.444c2.63-.301,5.03-1.044,6.93-2.136l-4.78-2.76c-.95.546-2.15.918-3.47,1.068-1.31.151-2.67.074-3.9-.222-1.24-.295-2.29-.795-3.03-1.437-.75-.642-1.14-1.396-1.14-2.168s.39-1.527,1.14-2.169c.74-.641,1.79-1.142,3.03-1.437c1.23-.295,2.59-.373,3.9-.222c1.32.15,2.52.522,3.47,1.068l4.78-2.76Z" fill="#fff"/><path d="M1022.1,247.264c-1.26-.725-2.75-1.3-4.39-1.692s-3.4-.594-5.17-.594c-1.78,0-3.54.202-5.18.594s-3.13.967-4.38,1.692l4.78,2.76c.62-.362,1.37-.65,2.19-.846s1.7-.297,2.59-.297c.88,0,1.76.101,2.58.297s1.57.484,2.2.846l4.78-2.76Z" fill="#5ce1e6"/><circle r="3.44961" transform="matrix(.866025 0.5-.866025 0.5 1012.540002 252.78361)" fill="#5ce1e6"/><path d="M1015.52,254.508c.4-.226.71-.495.92-.791s.32-.613.32-.933c0-.321-.11-.638-.32-.934s-.52-.565-.92-.791c-.39-.227-.85-.406-1.37-.529-.51-.123-1.06-.186-1.61-.186-.56,0-1.11.063-1.62.186s-.98.302-1.37.529l2.99,1.725l2.98,1.724Z" fill="#fff"/></g></g><g opacity="0.9"><rect width="19.2897" height="19.2897" rx="9.64486" ry="9.64486" transform="matrix(-.866025-.5 0.866026-.5 867.531493 405.621)" opacity="0.75" fill="none" stroke="url(#eE1ZTBKzVmj37-stroke)" stroke-width="0.5"/><rect width="19.2897" height="19.2897" rx="9.64486" ry="9.64486" transform="matrix(-.866025-.5 0.866026-.5 857.184493 399.647)" opacity="0.7" fill="none" stroke="url(#eE1ZTBKzVmj38-stroke)" stroke-width="0.5"/></g><g><path d="M963.095,212.362l1.151.665-2.431,1.403-7.593-4.384l1.291-.745l6.442,3.719l1.14-.658Zm-5.599,2.525c.373.215.613.47.72.764.108.294.058.608-.15.944-.215.339-.603.67-1.162.993s-1.129.544-1.71.665c-.588.124-1.136.155-1.645.093-.517-.058-.961-.195-1.334-.41-.416-.24-.663-.511-.742-.814-.086-.298.018-.61.312-.937-.631.19-1.244.263-1.839.217-.588-.041-1.122-.201-1.603-.478-.738-.426-1.054-.911-.946-1.453.115-.538.595-1.051,1.441-1.54.846-.488,1.735-.766,2.667-.832.932-.058,1.768.126,2.506.553.481.277.757.585.828.925.079.343-.046.697-.376,1.062.566-.17,1.111-.232,1.635-.187.516.05.982.195,1.398.435Zm-1.409.59c-.387-.224-.814-.325-1.28-.304-.466.029-.918.169-1.355.422-.437.252-.681.513-.731.782-.043.274.129.522.516.745.387.224.821.321,1.301.292.473-.025.925-.161,1.355-.41.43-.248.667-.509.71-.782s-.129-.522-.516-.745Zm-3.205-2.099c-.437-.252-.929-.366-1.474-.341-.537.029-1.057.188-1.559.478s-.778.59-.828.9c-.043.315.154.598.591.851.445.256.932.36,1.463.31.531-.041,1.036-.2,1.516-.478.474-.273.75-.565.829-.875.078-.311-.101-.592-.538-.845Zm-3.72,8.63c-.502.29-1.022.487-1.559.59-.531.108-1.04.124-1.527.05-.495-.071-.933-.215-1.313-.435-.48-.277-.745-.588-.795-.931-.051-.336.136-.663.559-.981l-.054-.031c-.674.215-1.308.32-1.904.316-.595.004-1.154-.145-1.677-.447-.638-.368-.947-.79-.925-1.266.029-.472.437-.936,1.226-1.391.81-.468,1.667-.727,2.57-.776.911-.046,1.807.144,2.689.571l-1.215.701c-.474-.223-.972-.333-1.495-.329-.516.009-1,.143-1.452.404-.423.244-.635.495-.635.751-.007.261.165.493.517.696.423.244.91.335,1.462.273.545-.058,1.126-.265,1.743-.621l.29-.168l1.011.584-.291.168c-1.183.666-1.369,1.233-.559,1.701.352.203.735.3,1.151.292s.81-.12,1.183-.335c.373-.216.57-.462.592-.739.028-.274-.147-.549-.527-.826l1.204-.696c.696.46,1.022.938.979,1.435-.036.501-.452.981-1.248,1.44Zm-7.461,4.308c-.502.29-1.022.486-1.559.59-.531.107-1.04.124-1.528.05-.494-.071-.932-.216-1.312-.435-.48-.277-.745-.588-.796-.932-.05-.335.137-.662.56-.981l-.054-.031c-.674.216-1.309.321-1.904.317-.595.004-1.154-.145-1.677-.447-.639-.368-.947-.791-.925-1.267.028-.472.437-.935,1.226-1.391.81-.467,1.667-.726,2.57-.776.911-.045,1.807.145,2.689.571l-1.215.702c-.474-.223-.972-.333-1.495-.329-.517.008-1.001.143-1.452.404-.423.244-.635.494-.635.751-.007.261.165.493.516.695.423.245.911.336,1.463.274.545-.058,1.126-.265,1.742-.621l.291-.168l1.011.584-.291.167c-1.183.667-1.369,1.234-.559,1.702.351.203.735.3,1.151.292.416-.009.81-.121,1.183-.336s.57-.461.591-.739c.029-.273-.147-.548-.527-.826l1.205-.695c.695.46,1.022.938.979,1.434-.036.501-.452.981-1.248,1.441Zm-14.122,6.862l-3.883-5.508l1.291-.745l3.699,5.452l3.765-2.173l1.064.614-5.011,2.894-.925-.534Zm-1.762.707l1.15.664-2.43,1.404-7.593-4.384l1.29-.745l6.443,3.719l1.14-.658Zm-9.848,4.655c.975.414,1.839.403,2.592-.031.545-.315.735-.677.57-1.087-.158-.406-.699-.876-1.624-1.41l-.376-.204c.279.285.354.598.225.937-.129.34-.437.65-.925.932-.745.43-1.552.639-2.419.627-.868-.013-1.707-.253-2.517-.721-.488-.281-.828-.59-1.022-.925-.186-.331-.2-.675-.043-1.031.165-.351.531-.691,1.097-1.018c1.097-.633,2.191-.871,3.281-.714c1.089.157,2.229.58,3.42,1.267c1.362.786,2.161,1.5,2.398,2.142.236.642-.144,1.25-1.14,1.825-.746.431-1.527.638-2.345.621-.824-.012-1.602-.192-2.333-.54l1.161-.67Zm-.086-3.329c-.466-.269-.993-.416-1.581-.44-.581-.021-1.136.122-1.667.428-.452.261-.678.544-.678.851-.007.31.226.602.7.875.509.294,1.036.441,1.581.441.544,0,1.05-.134,1.516-.404.423-.244.667-.529.731-.856.065-.327-.136-.626-.602-.895Zm-3.915,8.272c-.502.289-1.022.486-1.56.589-.53.108-1.039.125-1.527.05-.495-.07-.932-.215-1.312-.435-.48-.277-.746-.587-.796-.931-.05-.335.136-.662.559-.981l-.053-.031c-.674.215-1.309.321-1.904.317-.595.004-1.154-.145-1.678-.447-.638-.369-.946-.791-.925-1.267.029-.472.438-.936,1.226-1.391.811-.468,1.667-.727,2.571-.776.91-.046,1.807.145,2.689.571l-1.216.702c-.473-.224-.971-.334-1.495-.329-.516.008-1,.142-1.452.403-.423.244-.634.495-.634.752-.007.26.165.492.516.695.423.244.911.335,1.463.273.545-.058,1.125-.265,1.742-.621l.29-.167l1.011.583-.29.168c-1.183.666-1.369,1.233-.559,1.701.351.203.735.3,1.15.292.416-.008.811-.12,1.184-.335.372-.215.57-.462.591-.739.029-.273-.147-.549-.527-.826l1.205-.695c.695.459,1.021.937.978,1.434-.036.501-.451.981-1.247,1.441Zm-11.058,6.383c-.501.29-1.021.487-1.559.59-.531.108-1.04.125-1.527.05-.495-.07-.932-.215-1.312-.435-.481-.277-.746-.587-.796-.931-.05-.335.136-.662.559-.981l-.054-.031c-.674.215-1.308.321-1.903.317-.595.004-1.155-.145-1.678-.448-.638-.368-.946-.79-.925-1.266.029-.472.437-.936,1.226-1.391.81-.468,1.667-.727,2.571-.776.91-.046,1.806.145,2.688.571l-1.215.702c-.473-.224-.972-.334-1.495-.329-.516.008-1,.142-1.452.403-.423.244-.634.495-.634.751-.008.261.164.493.516.696.423.244.91.335,1.462.273.545-.058,1.126-.265,1.743-.621l.29-.167l1.011.583-.29.168c-1.183.666-1.37,1.233-.56,1.701.352.203.735.3,1.151.292s.81-.12,1.183-.335c.373-.216.57-.462.592-.739.028-.273-.147-.549-.527-.826l1.204-.695c.696.459,1.022.937.979,1.434-.036.501-.452.981-1.248,1.44Zm-6.988,1.725c.373.215.613.47.721.764s.057.608-.151.944c-.215.339-.602.67-1.161.993s-1.129.544-1.71.665c-.588.124-1.136.155-1.646.093-.516-.058-.96-.195-1.333-.41-.416-.24-.663-.511-.742-.814-.086-.298.018-.61.312-.937-.631.19-1.244.263-1.839.217-.588-.041-1.123-.201-1.603-.478-.738-.426-1.054-.911-.946-1.453.114-.538.595-1.051,1.441-1.54.846-.488,1.735-.766,2.667-.832.932-.058,1.767.126,2.506.553.48.277.756.585.828.925.079.343-.047.697-.376,1.062.566-.17,1.111-.232,1.634-.187.517.05.983.195,1.398.435Zm-1.408.59c-.388-.224-.814-.325-1.28-.304-.466.029-.918.169-1.355.422-.438.252-.681.513-.732.782-.043.274.129.522.517.745.387.224.821.321,1.301.292.473-.025.925-.161,1.355-.41.43-.248.667-.509.71-.782s-.129-.522-.516-.745Zm-3.205-2.099c-.438-.252-.929-.366-1.474-.341-.538.029-1.057.188-1.559.478s-.778.59-.828.9c-.043.315.154.598.591.851.445.256.932.36,1.463.31.53-.041,1.036-.2,1.516-.478.473-.273.75-.565.828-.875.079-.311-.1-.592-.537-.845Zm-8.033,4.613c-.466-.203-.921-.304-1.366-.304-.451.004-.871.118-1.258.341-.545.315-.735.673-.57,1.074.165.41.714.884,1.646,1.422l.376.205c-.272-.29-.344-.608-.215-.956.129-.34.434-.648.914-.925.746-.431,1.552-.64,2.42-.627.875.016,1.714.256,2.517.72.487.281.828.59,1.021.925.194.335.208.679.043,1.031-.157.356-.52.697-1.086,1.024-1.097.634-2.187.874-3.269.721-1.083-.145-2.216-.559-3.399-1.242-1.341-.774-2.151-1.486-2.431-2.136-.286-.646.058-1.25,1.033-1.813.753-.435,1.556-.654,2.409-.659.853.005,1.645.181,2.377.528l-1.162.671Zm.086,3.328c.466.269.99.414,1.571.435.58.029,1.14-.112,1.677-.423.445-.256.671-.54.678-.85c0-.307-.24-.598-.721-.876-.509-.294-1.032-.443-1.57-.447-.545,0-1.05.135-1.516.404-.273.157-.474.335-.603.534-.129.207-.161.416-.096.627.071.215.265.414.58.596Zm-7.447-.506c-.365,1.13-.516,2.115-.451,2.955.064.849.423,1.462,1.075,1.838.387.224.792.346,1.215.367.416.024.836-.085,1.259-.33.437-.252.623-.525.559-.819-.058-.29-.334-.594-.828-.913l1.194-.689c.817.53,1.215,1.066,1.193,1.608-.028.546-.419,1.037-1.172,1.472-.738.426-1.513.645-2.323.658-.81.021-1.559-.168-2.248-.565-.552-.319-.939-.741-1.161-1.267-.23-.521-.323-1.072-.28-1.652.05-.575.183-1.123.398-1.645l-3.603,2.08-1-.577l5.27-3.043.903.522Zm-4.998,9.219l1.151.664-2.431,1.404-7.593-4.384l1.291-.745l6.442,3.719l1.14-.658Zm-7.385,1.271c-1.212-.7-2.377-1.124-3.495-1.273-1.112-.145-2.169.072-3.173.652-1.004.579-1.376,1.192-1.118,1.838.258.645.989,1.316,2.194,2.011c1.197.692,2.351,1.11,3.463,1.255c1.118.149,2.179-.066,3.183-.646s1.38-1.19,1.129-1.832c-.251-.641-.978-1.31-2.183-2.005Zm-4.366,2.521c-.875-.505-1.438-.955-1.689-1.348s-.068-.768.549-1.124c.623-.36,1.276-.467,1.957-.323.681.145,1.459.47,2.334.975.867.501,1.423.946,1.667,1.335s.054.764-.57,1.124c-.617.356-1.266.462-1.947.317-.674-.141-1.441-.46-2.301-.956Zm-6.174.223c-.366,1.131-.516,2.116-.452,2.956.065.849.423,1.461,1.076,1.838.387.224.792.346,1.215.366.416.025.835-.084,1.258-.329.438-.252.624-.525.56-.819-.058-.29-.334-.594-.829-.913l1.194-.689c.818.53,1.215,1.066,1.194,1.608-.029.546-.419,1.037-1.172,1.471-.739.427-1.513.646-2.323.659-.811.02-1.56-.168-2.248-.565-.552-.319-.939-.741-1.162-1.267-.229-.522-.322-1.072-.279-1.652.05-.575.183-1.124.398-1.645l-3.603,2.08-1-.578l5.269-3.042.904.521Zm-2.628,7.144c.372.215.613.469.72.763.108.294.058.609-.15.944-.215.34-.603.671-1.162.994-.559.322-1.129.544-1.71.664-.588.124-1.136.155-1.645.093-.517-.058-.961-.194-1.334-.41-.416-.24-.663-.511-.742-.813-.086-.298.018-.611.312-.938-.631.191-1.244.263-1.839.218-.588-.042-1.122-.201-1.603-.479-.738-.426-1.054-.91-.946-1.453.115-.538.595-1.051,1.441-1.539.846-.489,1.735-.766,2.667-.832.932-.058,1.768.126,2.506.552.48.278.756.586.828.925.079.344-.046.698-.376,1.062.566-.17,1.111-.232,1.634-.186.517.05.983.194,1.399.435Zm-1.409.589c-.387-.223-.814-.325-1.28-.304-.466.029-.918.17-1.355.422-.438.253-.681.514-.732.783-.043.273.13.521.517.745.387.223.821.321,1.301.292.473-.025.925-.162,1.355-.41s.667-.509.71-.782c.043-.274-.129-.522-.516-.746Zm-3.205-2.098c-.438-.253-.929-.367-1.474-.342-.537.029-1.057.188-1.559.478s-.778.59-.828.901c-.043.314.154.598.591.85.445.257.932.36,1.463.311.531-.042,1.036-.201,1.516-.478.474-.274.75-.565.829-.876.078-.31-.101-.592-.538-.844Z" fill="#fff"/></g><g><path d="M762.773,323.924l-6.324,2.194-1.004-.579l2.847-2.877-4.983,1.643-1.004-.579l3.8-3.651.896.517-3.241,2.881l5.227-1.734.903.521-3.004,3.018l4.991-1.871.896.517Zm.502,4.869l-2.136-1.234-1.484.41-.875-.505l6.847-1.801.939.543-3.126,3.949-.874-.505.709-.857Zm.402-.497l1.527-1.85-3.205.881l1.678.969Zm5.231,2.06l-.33,2.765-.996-.575.344-2.509-2.345,1.354-.817-.472l5.062-2.922.817.471-2.315,1.338l4.323-.178.989.571-4.732.157Zm8.07,6.059c-.248.143-.54.242-.874.298-.33.052-.681.045-1.054-.021s-.736-.202-1.09-.406c-.344-.198-.593-.411-.746-.637-.148-.229-.193-.454-.136-.675s.218-.421.48-.6l.875.505c-.196.141-.291.303-.287.488.01.188.153.362.431.522.248.143.506.215.774.215.272.003.514-.056.724-.178.182-.105.28-.219.294-.344.019-.126-.012-.252-.093-.376s-.208-.286-.38-.485c-.215-.24-.373-.447-.473-.62-.096-.172-.118-.352-.065-.543.053-.19.234-.375.545-.554.272-.158.578-.257.918-.298.339-.042.688-.023,1.047.057.363.078.707.21,1.032.398.516.298.801.606.853.923.058.32-.093.608-.452.865l-.881-.509c.157-.13.229-.276.215-.439-.005-.163-.134-.317-.387-.463-.23-.133-.474-.205-.732-.216-.253-.013-.49.043-.71.17-.172.099-.267.21-.286.331-.015.119.016.239.093.36.086.122.212.28.38.476.22.243.377.453.473.63.105.176.129.361.072.554-.053.196-.239.387-.56.572Zm6.031-.807l-3.004,1.734c-.449.26-.686.509-.71.75-.019.242.151.467.509.674.354.205.739.3,1.155.286.42-.011.855-.146,1.305-.406l3.004-1.734.817.472-3.004,1.734c-.693.4-1.398.6-2.115.6-.712-.002-1.362-.173-1.95-.513-.584-.337-.875-.709-.875-1.118.005-.411.354-.816,1.047-1.217l3.004-1.734.817.472Zm3.778,8.026l-.817-.472l1.276-3.576-3.736,2.156-.817-.472l5.055-2.918.817.472-1.29,3.585l3.749-2.165.818.472-5.055,2.918Zm5.822,2.095l-2.137-1.234-1.484.41-.875-.505l6.848-1.801.939.542-3.126,3.949-.875-.505.71-.856Zm.401-.497l1.528-1.851-3.205.882l1.677.969Zm3.748,4.159l.76-1.896-.581-.336-2.022,1.168-.817-.472l5.062-2.923l1.785,1.031c.578.334.875.668.889,1.002.019.336-.203.639-.667.906-.397.229-.834.352-1.312.369-.473.019-.956-.072-1.448-.273l-.732,1.953-.917-.529Zm.76-2.567l.903.522c.66.38,1.281.403,1.864.066.277-.16.411-.331.402-.513c0-.183-.17-.372-.509-.568l-.904-.521-1.756,1.014Zm7.461,1.468l-5.062,2.923-.817-.472l5.062-2.923.817.472Z" fill="#fff"/></g><g><path d="M741.867,328.415c-.677.391-1.093.76-1.249,1.107-.155.347.042.68.592.997s1.125.431,1.727.341c.605-.087,1.246-.326,1.924-.717.669-.386,1.079-.754,1.23-1.104.156-.347-.041-.679-.591-.997-.55-.317-1.125-.431-1.727-.341-.597.087-1.233.325-1.906.714Zm2.456,1.417c-.347.201-.663.354-.95.459-.279.106-.558.159-.837.159s-.549-.076-.812-.228c-.259-.149-.389-.304-.389-.465s.09-.324.269-.487c.187-.163.454-.345.801-.545.342-.198.653-.349.932-.455.283-.104.562-.154.836-.152.279,0,.548.075.807.224.263.152.394.308.394.469.004.159-.085.319-.268.48-.18.163-.441.344-.783.541Zm4.548,1.523c.219-.164.327-.325.323-.483.004-.159-.116-.308-.359-.449-.338-.195-.727-.268-1.165-.217-.434.053-.936.244-1.505.573l-.215.131c.298-.104.625-.134.979-.09.359.041.684.146.974.314.419.241.62.502.604.783-.012.283-.243.554-.693.814-.263.152-.554.26-.873.324-.314.062-.643.068-.986.018-.334-.051-.659-.167-.973-.349-.602-.347-.827-.696-.676-1.045.156-.347.558-.708,1.207-1.083.749-.433,1.43-.688,2.044-.766.621-.078,1.205.04,1.75.355.403.233.598.476.586.732-.008.257-.175.503-.502.738l-.52-.3Zm-3.417-.09c-.291.168-.452.358-.484.569-.024.212.133.415.472.611.278.161.583.242.914.245.334,0,.651-.087.95-.259.322-.186.484-.376.484-.569.004-.196-.142-.379-.436-.549-.168-.096-.361-.169-.58-.217s-.446-.06-.681-.035c-.231.023-.444.091-.639.204Zm9.154.469l-8.287,2.895-.526-.304l8.281-2.898.532.307Zm-4.935,3.167c1.131.129,2.123.182,2.975.159.857-.025,1.478-.149,1.864-.373.239-.138.369-.284.389-.438.028-.154-.094-.309-.365-.465-.279-.161-.579-.231-.902-.211-.319.019-.641.113-.968.283l-.538-.31c.498-.256,1.004-.38,1.518-.373.518.005.984.127,1.398.366.395.227.602.469.622.724.019.255-.164.495-.55.718-.319.184-.747.311-1.285.383-.53.071-1.091.098-1.685.082-.585-.016-1.139-.062-1.661-.138l2.139,1.235-.448.259-2.898-1.673.395-.228Zm5.194,1.019c-.677.391-1.093.76-1.249,1.108-.155.347.042.679.592.997.55.317,1.125.431,1.727.341.605-.087,1.246-.326,1.924-.717.669-.387,1.079-.755,1.23-1.104.156-.348-.041-.68-.591-.997-.55-.318-1.125-.431-1.727-.342-.597.088-1.233.326-1.906.714Zm2.456,1.418c-.347.2-.663.353-.95.459-.279.106-.558.159-.837.159-.278,0-.549-.076-.812-.228-.259-.15-.389-.305-.389-.466s.09-.323.269-.486c.188-.163.454-.345.801-.545.343-.198.653-.35.932-.456.283-.103.562-.154.837-.151.278,0,.547.074.806.224.263.152.394.308.394.469.004.159-.085.319-.268.48-.18.163-.441.343-.783.541Zm-.59,1.64c1.131.128,2.123.181,2.975.158.857-.025,1.478-.149,1.865-.372.239-.138.368-.284.388-.438.028-.155-.094-.31-.365-.466-.278-.161-.579-.231-.902-.211-.318.019-.641.113-.968.283l-.537-.31c.498-.255,1.003-.38,1.517-.373.518.005.984.127,1.398.366.395.228.602.469.622.724.02.256-.164.495-.55.718-.319.184-.747.312-1.285.383-.529.071-1.091.099-1.684.083-.586-.017-1.14-.063-1.661-.138l2.139,1.235-.449.258-2.897-1.673.394-.227Zm3.874,1.601l.454-.262l4.983-.379.586.338-2.803,1.618.622.359-.472.272-.622-.359-.968.559-.549-.317.968-.559-2.199-1.27Zm4.846-.217l-3.8.276l1.661.959l2.139-1.235Z" fill="#fff" fill-opacity="0.7"/></g><g><path d="M870.964,334.273c.253-.146.663-.146.916,0l4.835,2.792c.253.146.253.382,0,.528l-2.279,1.316c-.253.146-.663.146-.916,0l-4.836-2.791c-.253-.146-.253-.383,0-.529l2.28-1.316Z" fill="#fff"/><path d="M850.386,328.296c.253-.146.664-.146.917,0l4.835,2.792c.253.146.253.382,0,.529l-2.279,1.315c-.253.146-.663.146-.916,0l-4.836-2.791c-.253-.146-.253-.383,0-.529l2.279-1.316Z" fill="#fff"/><path d="M855.499,325.344c.253-.146.663-.146.916,0l4.835,2.792c.253.146.253.383,0,.529l-2.279,1.316c-.253.146-.663.146-.916,0l-4.835-2.792c-.253-.146-.253-.383,0-.529l2.279-1.316Z" fill="#fff"/><path d="M861.89,330.51c.253-.146.663-.146.916,0l4.963,2.866c.253.146.253.382,0,.529l-4.835,2.791c-.253.146-.663.146-.916,0l-4.963-2.865c-.253-.146-.253-.383,0-.529l4.835-2.792Z" fill="#fff"/><path d="M865.853,337.226c.253-.146.663-.146.916,0l4.836,2.792c.253.146.253.382,0,.528l-2.279,1.316c-.253.146-.663.146-.916,0l-4.836-2.791c-.253-.146-.253-.383,0-.529l2.279-1.316Z" fill="#fff"/><path d="M864.584,327.847c.53.306.53.801,0,1.107-.176.102-.176.267,0,.369l1.204.695c.253.146.663.146.916,0l1.779-1.027c.254-.147.599-.229.958-.229.207,0,.311-.145.165-.23l-9.357-5.402c-.253-.146-.663-.146-.916,0l-1.001.578c-.253.146-.253.383,0,.529l6.252,3.61Z" fill="#fff"/><path d="M870.271,330.327c-.172,0-.337.039-.458.109l-1.192.689c-.253.146-.253.382,0,.528l1.204.695c.176.102.462.102.639,0c.529-.305,1.387-.305,1.917,0l6.252,3.61c.253.146.663.146.916,0l1.001-.578c.253-.146.253-.383,0-.529l-7.646-4.415c-.122-.07-.287-.109-.458-.109h-2.175Z" fill="#fff"/><path d="M860.24,339.359c-.529-.305-.529-.801,0-1.106.176-.102.176-.267,0-.369l-1.204-.695c-.253-.146-.663-.146-.916,0l-1.778,1.027c-.255.146-.599.229-.959.229-.207,0-.311.145-.164.229l9.356,5.402c.253.146.663.146.916,0l1.001-.578c.253-.146.253-.383,0-.529l-6.252-3.61Z" fill="#fff"/><path d="M854.552,336.879c.172,0,.336-.04.458-.11l1.192-.688c.253-.146.253-.383,0-.529l-1.204-.695c-.176-.102-.462-.102-.639,0-.529.306-1.388.306-1.917,0l-6.252-3.609c-.253-.146-.663-.146-.916,0l-1.001.578c-.253.146-.253.382,0,.529l7.646,4.414c.122.07.286.11.458.11h2.175Z" fill="#fff"/><rect width="24.3316" height="18.5132" rx="0.793421" ry="0.793421" transform="matrix(.866025 0.5-.866025 0.5 859.791959 322.837237)" fill="none" stroke="#fff" stroke-width="0.528947"/></g><g style="mix-blend-mode:overlay"><path d="M848.588,342.779c-1.198-.159-3.661-.836-3.933-2.266m2.308,4.832c-1.858-.275-5.811-1.439-6.759-3.895m5.54,6.296c-2.474-.391-7.844-2.037-9.524-5.488m7.792,7.832c-3.015-.411-9.608-2.353-11.86-6.833" fill="none" stroke="#fff" stroke-width="1.37985" stroke-linecap="round" stroke-linejoin="round"/></g><path d="M999.536,342.186l50.154-28.956c-.99-2.279-2.27-4.522-3.84-6.71-3.52-4.91-8.41-9.418-14.45-13.357-4.69-3.064-10.06-5.783-16.02-8.08-13.6-5.248-29.597-8.049-45.96-8.049s-32.358,2.801-45.963,8.049c-13.605,5.249-24.209,12.709-30.471,21.437-5.876,8.19-7.681,17.152-5.243,25.882l34.254,19.776l18.173-10.492c-5.785-3.34-9.725-7.595-11.321-12.228s-.777-9.435,2.354-13.799s8.433-8.094,15.235-10.718c6.803-2.624,14.801-4.025,22.982-4.025s16.179,1.401,22.982,4.025c2.263.873,4.361,1.869,6.268,2.97c3.46,2,6.3,4.348,8.35,6.937.22.268.42.538.62.811c1.95,2.728,3.01,5.626,3.13,8.548.01.197.02.394.02.592c0,1.556-.27,3.117-.8,4.659-.5,1.448-1.23,2.858-2.17,4.216-.06.088-.12.176-.18.264-2.07,2.884-5.11,5.52-8.97,7.748l.866.5Zm-48.398-6.833c-10.097-5.829-10.097-15.28,0-21.109c10.096-5.829,26.466-5.829,36.562,0c10.097,5.829,10.097,15.28,0,21.109-4.959,2.864-11.433,4.321-17.932,4.371-.117.001-.233.001-.349.001-.117,0-.233,0-.349-.001-6.5-.05-12.973-1.507-17.932-4.371Z" clip-rule="evenodd" fill="url(#eE1ZTBKzVmj58-fill)" fill-rule="evenodd"/></g></g><g><path id="eE1ZTBKzVmj60" d="M722.813,241.884c-27.887-1.875-48.978-26.012-47.103-53.665c2.109-27.887,26.012-48.978,53.899-47.103c27.653,2.109,48.744,26.012,46.869,53.899-1.875,27.653-26.012,48.744-53.665,46.869Z" transform="translate(2.047945-9.99507)" fill="url(#eE1ZTBKzVmj60-fill)"/><path id="eE1ZTBKzVmj61" d="M1080.38,579.922c-18.77-1.262-32.97-17.513-31.71-36.131c1.42-18.775,17.51-32.975,36.29-31.713c18.62,1.42,32.82,17.513,31.56,36.289-1.27,18.617-17.52,32.817-36.14,31.555Z" fill="url(#eE1ZTBKzVmj61-fill)"/><path d="M753.554,613.963c-8.835-.594-15.518-8.241-14.924-17.002.669-8.836,8.242-15.518,17.077-14.924c8.762.668,15.444,8.241,14.85,17.077-.594,8.761-8.241,15.443-17.003,14.849Z" fill="url(#eE1ZTBKzVmj62-fill)"/></g></g>
<script><![CDATA[
!function(t,n){"object"==typeof exports&&"undefined"!=typeof module?module.exports=n():"function"==typeof __SVGATOR_DEFINE__&&__SVGATOR_DEFINE__.amd?__SVGATOR_DEFINE__(n):((t="undefined"!=typeof globalThis?globalThis:t||self).__SVGATOR_PLAYER__=t.__SVGATOR_PLAYER__||{},t.__SVGATOR_PLAYER__["5c7f360c"]=n())}(this,(function(){"use strict";function t(t,n){var e=Object.keys(t);if(Object.getOwnPropertySymbols){var r=Object.getOwnPropertySymbols(t);n&&(r=r.filter((function(n){return Object.getOwnPropertyDescriptor(t,n).enumerable}))),e.push.apply(e,r)}return e}function n(n){for(var e=1;e<arguments.length;e++){var r=null!=arguments[e]?arguments[e]:{};e%2?t(Object(r),!0).forEach((function(t){o(n,t,r[t])})):Object.getOwnPropertyDescriptors?Object.defineProperties(n,Object.getOwnPropertyDescriptors(r)):t(Object(r)).forEach((function(t){Object.defineProperty(n,t,Object.getOwnPropertyDescriptor(r,t))}))}return n}function e(t){return(e="function"==typeof Symbol&&"symbol"==typeof Symbol.iterator?function(t){return typeof t}:function(t){return t&&"function"==typeof Symbol&&t.constructor===Symbol&&t!==Symbol.prototype?"symbol":typeof t})(t)}function r(t,n){if(!(t instanceof n))throw new TypeError("Cannot call a class as a function")}function i(t,n){for(var e=0;e<n.length;e++){var r=n[e];r.enumerable=r.enumerable||!1,r.configurable=!0,"value"in r&&(r.writable=!0),Object.defineProperty(t,r.key,r)}}function u(t,n,e){return n&&i(t.prototype,n),e&&i(t,e),t}function o(t,n,e){return n in t?Object.defineProperty(t,n,{value:e,enumerable:!0,configurable:!0,writable:!0}):t[n]=e,t}function a(t){return(a=Object.setPrototypeOf?Object.getPrototypeOf:function(t){return t.__proto__||Object.getPrototypeOf(t)})(t)}function l(t,n){return(l=Object.setPrototypeOf||function(t,n){return t.__proto__=n,t})(t,n)}function s(){if("undefined"==typeof Reflect||!Reflect.construct)return!1;if(Reflect.construct.sham)return!1;if("function"==typeof Proxy)return!0;try{return Boolean.prototype.valueOf.call(Reflect.construct(Boolean,[],(function(){}))),!0}catch(t){return!1}}function f(t,n,e){return(f=s()?Reflect.construct:function(t,n,e){var r=[null];r.push.apply(r,n);var i=new(Function.bind.apply(t,r));return e&&l(i,e.prototype),i}).apply(null,arguments)}function c(t,n){if(n&&("object"==typeof n||"function"==typeof n))return n;if(void 0!==n)throw new TypeError("Derived constructors may only return object or undefined");return function(t){if(void 0===t)throw new ReferenceError("this hasn't been initialised - super() hasn't been called");return t}(t)}function h(t,n,e){return(h="undefined"!=typeof Reflect&&Reflect.get?Reflect.get:function(t,n,e){var r=function(t,n){for(;!Object.prototype.hasOwnProperty.call(t,n)&&null!==(t=a(t)););return t}(t,n);if(r){var i=Object.getOwnPropertyDescriptor(r,n);return i.get?i.get.call(e):i.value}})(t,n,e||t)}function v(t){return function(t){if(Array.isArray(t))return y(t)}(t)||function(t){if("undefined"!=typeof Symbol&&null!=t[Symbol.iterator]||null!=t["@@iterator"])return Array.from(t)}(t)||function(t,n){if(!t)return;if("string"==typeof t)return y(t,n);var e=Object.prototype.toString.call(t).slice(8,-1);"Object"===e&&t.constructor&&(e=t.constructor.name);if("Map"===e||"Set"===e)return Array.from(t);if("Arguments"===e||/^(?:Ui|I)nt(?:8|16|32)(?:Clamped)?Array$/.test(e))return y(t,n)}(t)||function(){throw new TypeError("Invalid attempt to spread non-iterable instance.\nIn order to be iterable, non-array objects must have a [Symbol.iterator]() method.")}()}function y(t,n){(null==n||n>t.length)&&(n=t.length);for(var e=0,r=new Array(n);e<n;e++)r[e]=t[e];return r}Number.isInteger||(Number.isInteger=function(t){return"number"==typeof t&&isFinite(t)&&Math.floor(t)===t}),Number.EPSILON||(Number.EPSILON=2220446049250313e-31);var g=p(Math.pow(10,-6));function p(t){var n=arguments.length>1&&void 0!==arguments[1]?arguments[1]:6;if(Number.isInteger(t))return t;var e=Math.pow(10,n);return Math.round((+t+Number.EPSILON)*e)/e}function d(t,n){var e=arguments.length>2&&void 0!==arguments[2]?arguments[2]:g;return Math.abs(t-n)<e}var m=Math.PI/180;function b(t){return t}function w(t,n,e){var r=1-e;return 3*e*r*(t*r+n*e)+e*e*e}function A(){var t=arguments.length>0&&void 0!==arguments[0]?arguments[0]:0,n=arguments.length>1&&void 0!==arguments[1]?arguments[1]:0,e=arguments.length>2&&void 0!==arguments[2]?arguments[2]:1,r=arguments.length>3&&void 0!==arguments[3]?arguments[3]:1;return t<0||t>1||e<0||e>1?null:d(t,n)&&d(e,r)?b:function(i){if(i<=0)return t>0?i*n/t:0===n&&e>0?i*r/e:0;if(i>=1)return e<1?1+(i-1)*(r-1)/(e-1):1===e&&t<1?1+(i-1)*(n-1)/(t-1):1;for(var u,o=0,a=1;o<a;){var l=w(t,e,u=(o+a)/2);if(d(i,l))break;l<i?o=u:a=u}return w(n,r,u)}}function _(){return 1}function x(t){return 1===t?1:0}function k(){var t=arguments.length>0&&void 0!==arguments[0]?arguments[0]:1,n=arguments.length>1&&void 0!==arguments[1]?arguments[1]:0;if(1===t){if(0===n)return x;if(1===n)return _}var e=1/t;return function(t){return t>=1?1:(t+=n*e)-t%e}}var S=Math.sin,O=Math.cos,j=Math.acos,E=Math.asin,M=Math.tan,P=Math.atan2,I=Math.PI/180,R=180/Math.PI,F=Math.sqrt,N=function(){function t(){var n=arguments.length>0&&void 0!==arguments[0]?arguments[0]:1,e=arguments.length>1&&void 0!==arguments[1]?arguments[1]:0,i=arguments.length>2&&void 0!==arguments[2]?arguments[2]:0,u=arguments.length>3&&void 0!==arguments[3]?arguments[3]:1,o=arguments.length>4&&void 0!==arguments[4]?arguments[4]:0,a=arguments.length>5&&void 0!==arguments[5]?arguments[5]:0;r(this,t),this.m=[n,e,i,u,o,a],this.i=null,this.w=null,this.s=null}return u(t,[{key:"determinant",get:function(){var t=this.m;return t[0]*t[3]-t[1]*t[2]}},{key:"isIdentity",get:function(){if(null===this.i){var t=this.m;this.i=1===t[0]&&0===t[1]&&0===t[2]&&1===t[3]&&0===t[4]&&0===t[5]}return this.i}},{key:"point",value:function(t,n){var e=this.m;return{x:e[0]*t+e[2]*n+e[4],y:e[1]*t+e[3]*n+e[5]}}},{key:"translateSelf",value:function(){var t=arguments.length>0&&void 0!==arguments[0]?arguments[0]:0,n=arguments.length>1&&void 0!==arguments[1]?arguments[1]:0;if(!t&&!n)return this;var e=this.m;return e[4]+=e[0]*t+e[2]*n,e[5]+=e[1]*t+e[3]*n,this.w=this.s=this.i=null,this}},{key:"rotateSelf",value:function(){var t=arguments.length>0&&void 0!==arguments[0]?arguments[0]:0;if(t%=360){var n=S(t*=I),e=O(t),r=this.m,i=r[0],u=r[1];r[0]=i*e+r[2]*n,r[1]=u*e+r[3]*n,r[2]=r[2]*e-i*n,r[3]=r[3]*e-u*n,this.w=this.s=this.i=null}return this}},{key:"scaleSelf",value:function(){var t=arguments.length>0&&void 0!==arguments[0]?arguments[0]:1,n=arguments.length>1&&void 0!==arguments[1]?arguments[1]:1;if(1!==t||1!==n){var e=this.m;e[0]*=t,e[1]*=t,e[2]*=n,e[3]*=n,this.w=this.s=this.i=null}return this}},{key:"skewSelf",value:function(t,n){if(n%=360,(t%=360)||n){var e=this.m,r=e[0],i=e[1],u=e[2],o=e[3];t&&(t=M(t*I),e[2]+=r*t,e[3]+=i*t),n&&(n=M(n*I),e[0]+=u*n,e[1]+=o*n),this.w=this.s=this.i=null}return this}},{key:"resetSelf",value:function(){var t=arguments.length>0&&void 0!==arguments[0]?arguments[0]:1,n=arguments.length>1&&void 0!==arguments[1]?arguments[1]:0,e=arguments.length>2&&void 0!==arguments[2]?arguments[2]:0,r=arguments.length>3&&void 0!==arguments[3]?arguments[3]:1,i=arguments.length>4&&void 0!==arguments[4]?arguments[4]:0,u=arguments.length>5&&void 0!==arguments[5]?arguments[5]:0,o=this.m;return o[0]=t,o[1]=n,o[2]=e,o[3]=r,o[4]=i,o[5]=u,this.w=this.s=this.i=null,this}},{key:"recomposeSelf",value:function(){var t=arguments.length>0&&void 0!==arguments[0]?arguments[0]:null,n=arguments.length>1&&void 0!==arguments[1]?arguments[1]:null,e=arguments.length>2&&void 0!==arguments[2]?arguments[2]:null,r=arguments.length>3&&void 0!==arguments[3]?arguments[3]:null,i=arguments.length>4&&void 0!==arguments[4]?arguments[4]:null;return this.isIdentity||this.resetSelf(),t&&(t.x||t.y)&&this.translateSelf(t.x,t.y),n&&this.rotateSelf(n),e&&(e.x&&this.skewSelf(e.x,0),e.y&&this.skewSelf(0,e.y)),!r||1===r.x&&1===r.y||this.scaleSelf(r.x,r.y),i&&(i.x||i.y)&&this.translateSelf(i.x,i.y),this}},{key:"decompose",value:function(){var t=arguments.length>0&&void 0!==arguments[0]?arguments[0]:0,n=arguments.length>1&&void 0!==arguments[1]?arguments[1]:0,e=this.m,r=e[0]*e[0]+e[1]*e[1],i=[[e[0],e[1]],[e[2],e[3]]],u=F(r);if(0===u)return{origin:{x:p(e[4]),y:p(e[5])},translate:{x:p(t),y:p(n)},scale:{x:0,y:0},skew:{x:0,y:0},rotate:0};i[0][0]/=u,i[0][1]/=u;var o=e[0]*e[3]-e[1]*e[2]<0;o&&(u=-u);var a=i[0][0]*i[1][0]+i[0][1]*i[1][1];i[1][0]-=i[0][0]*a,i[1][1]-=i[0][1]*a;var l=F(i[1][0]*i[1][0]+i[1][1]*i[1][1]);if(0===l)return{origin:{x:p(e[4]),y:p(e[5])},translate:{x:p(t),y:p(n)},scale:{x:p(u),y:0},skew:{x:0,y:0},rotate:0};i[1][0]/=l,i[1][1]/=l,a/=l;var s=0;return i[1][1]<0?(s=j(i[1][1])*R,i[0][1]<0&&(s=360-s)):s=E(i[0][1])*R,o&&(s=-s),a=P(a,F(i[0][0]*i[0][0]+i[0][1]*i[0][1]))*R,o&&(a=-a),{origin:{x:p(e[4]),y:p(e[5])},translate:{x:p(t),y:p(n)},scale:{x:p(u),y:p(l)},skew:{x:p(a),y:0},rotate:p(s)}}},{key:"clone",value:function(){var t=this.m;return new this.constructor(t[0],t[1],t[2],t[3],t[4],t[5])}},{key:"toString",value:function(){var t=arguments.length>0&&void 0!==arguments[0]?arguments[0]:" ";if(null===this.s){var n=this.m.map((function(t){return p(t)}));1===n[0]&&0===n[1]&&0===n[2]&&1===n[3]?this.s="translate("+n[4]+t+n[5]+")":this.s="matrix("+n.join(t)+")"}return this.s}}],[{key:"create",value:function(t){return t?Array.isArray(t)?f(this,v(t)):t instanceof this?t.clone():(new this).recomposeSelf(t.origin,t.rotate,t.skew,t.scale,t.translate):new this}}]),t}();function T(t,n,e){return t>=.5?e:n}function q(t,n,e){return 0===t||n===e?n:t*(e-n)+n}function B(t,n,e){var r=q(t,n,e);return r<=0?0:r}function D(t,n,e){var r=q(t,n,e);return r<=0?0:r>=1?1:r}function L(t,n,e){return 0===t?n:1===t?e:{x:q(t,n.x,e.x),y:q(t,n.y,e.y)}}function C(t,n,e){var r=function(t,n,e){return Math.round(q(t,n,e))}(t,n,e);return r<=0?0:r>=255?255:r}function V(t,n,e){return 0===t?n:1===t?e:{r:C(t,n.r,e.r),g:C(t,n.g,e.g),b:C(t,n.b,e.b),a:q(t,null==n.a?1:n.a,null==e.a?1:e.a)}}function G(t,n){for(var e=[],r=0;r<t;r++)e.push(n);return e}function z(t,n){if(--n<=0)return t;var e=(t=Object.assign([],t)).length;do{for(var r=0;r<e;r++)t.push(t[r])}while(--n>0);return t}var Y,$=function(){function t(n){r(this,t),this.list=n,this.length=n.length}return u(t,[{key:"setAttribute",value:function(t,n){for(var e=this.list,r=0;r<this.length;r++)e[r].setAttribute(t,n)}},{key:"removeAttribute",value:function(t){for(var n=this.list,e=0;e<this.length;e++)n[e].removeAttribute(t)}},{key:"style",value:function(t,n){for(var e=this.list,r=0;r<this.length;r++)e[r].style[t]=n}}]),t}(),U=/-./g,Q=function(t,n){return n.toUpperCase()};function H(t){return"function"==typeof t?t:T}function J(t){return t?"function"==typeof t?t:Array.isArray(t)?function(t){var n=arguments.length>1&&void 0!==arguments[1]?arguments[1]:b;if(!Array.isArray(t))return n;switch(t.length){case 1:return k(t[0])||n;case 2:return k(t[0],t[1])||n;case 4:return A(t[0],t[1],t[2],t[3])||n}return n}(t,null):function(t,n){var e=arguments.length>2&&void 0!==arguments[2]?arguments[2]:b;switch(t){case"linear":return b;case"steps":return k(n.steps||1,n.jump||0)||e;case"bezier":case"cubic-bezier":return A(n.x1||0,n.y1||0,n.x2||0,n.y2||0)||e}return e}(t.type,t.value,null):null}function Z(t,n,e){var r=arguments.length>3&&void 0!==arguments[3]&&arguments[3],i=n.length-1;if(t<=n[0].t)return r?[0,0,n[0].v]:n[0].v;if(t>=n[i].t)return r?[i,1,n[i].v]:n[i].v;var u,o=n[0],a=null;for(u=1;u<=i;u++){if(!(t>n[u].t)){a=n[u];break}o=n[u]}return null==a?r?[i,1,n[i].v]:n[i].v:o.t===a.t?r?[u,1,a.v]:a.v:(t=(t-o.t)/(a.t-o.t),o.e&&(t=o.e(t)),r?[u,t,e(t,o.v,a.v)]:e(t,o.v,a.v))}function K(t,n){var e=arguments.length>2&&void 0!==arguments[2]?arguments[2]:null;return t&&t.length?"function"!=typeof n?null:("function"!=typeof e&&(e=null),function(r){var i=Z(r,t,n);return null!=i&&e&&(i=e(i)),i}):null}function W(t,n){return t.t-n.t}function X(t,n,r,i,u){var o,a="@"===r[0],l="#"===r[0],s=Y[r],f=T;switch(a?(o=r.substr(1),r=o.replace(U,Q)):l&&(r=r.substr(1)),e(s)){case"function":if(f=s(i,u,Z,J,r,a,n,t),l)return f;break;case"string":f=K(i,H(s));break;case"object":if((f=K(i,H(s.i),s.f))&&"function"==typeof s.u)return s.u(n,f,r,a,t)}return f?function(t,n,e){if(arguments.length>3&&void 0!==arguments[3]&&arguments[3])return t instanceof $?function(r){return t.style(n,e(r))}:function(r){return t.style[n]=e(r)};if(Array.isArray(n)){var r=n.length;return function(i){var u=e(i);if(null==u)for(var o=0;o<r;o++)t[o].removeAttribute(n);else for(var a=0;a<r;a++)t[a].setAttribute(n,u)}}return function(r){var i=e(r);null==i?t.removeAttribute(n):t.setAttribute(n,i)}}(n,r,f,a):null}function tt(t,n,r,i){if(!i||"object"!==e(i))return null;var u=null,o=null;return Array.isArray(i)?o=function(t){if(!t||!t.length)return null;for(var n=0;n<t.length;n++)t[n].e&&(t[n].e=J(t[n].e));return t.sort(W)}(i):(o=i.keys,u=i.data||null),o?X(t,n,r,o,u):null}function nt(t,n,e){if(!e)return null;var r=[];for(var i in e)if(e.hasOwnProperty(i)){var u=tt(t,n,i,e[i]);u&&r.push(u)}return r.length?r:null}function et(t,n){if(!n.settings.duration||n.settings.duration<0)return null;var e,r,i,u,o,a=function(t,n){if(!n)return null;var e=[];if(Array.isArray(n))for(var r=n.length,i=0;i<r;i++){var u=n[i];if(2===u.length){var o=null;if("string"==typeof u[0])o=t.getElementById(u[0]);else if(Array.isArray(u[0])){o=[];for(var a=0;a<u[0].length;a++)if("string"==typeof u[0][a]){var l=t.getElementById(u[0][a]);l&&o.push(l)}o=o.length?1===o.length?o[0]:new $(o):null}if(o){var s=nt(t,o,u[1]);s&&(e=e.concat(s))}}}else for(var f in n)if(n.hasOwnProperty(f)){var c=t.getElementById(f);if(c){var h=nt(t,c,n[f]);h&&(e=e.concat(h))}}return e.length?e:null}(t,n.elements);return a?(e=a,r=n.settings,i=r.duration,u=e.length,o=null,function(t,n){var a=r.iterations||1/0,l=(r.alternate&&a%2==0)^r.direction>0?i:0,s=t%i,f=1+(t-s)/i;n*=r.direction,r.alternate&&f%2==0&&(n=-n);var c=!1;if(f>a)s=l,c=!0,-1===r.fill&&(s=r.direction>0?0:i);else if(n<0&&(s=i-s),s===o)return!1;o=s;for(var h=0;h<u;h++)e[h](s);return c}):null}function rt(t,n){if(Y=n,!t||!t.root||!Array.isArray(t.animations))return null;var e=function(t){for(var n=document.getElementsByTagName("svg"),e=0;e<n.length;e++)if(n[e].id===t.root&&!n[e].svgatorAnimation)return n[e].svgatorAnimation=!0,n[e];return null}(t);if(!e)return null;var r=t.animations.map((function(t){return et(e,t)})).filter((function(t){return!!t}));return r.length?{svg:e,animations:r,animationSettings:t.animationSettings,options:t.options||void 0}:null}function it(t){return+("0x"+(t.replace(/[^0-9a-fA-F]+/g,"")||27))}function ut(t,n,e){return!t||!e||n>t.length?t:t.substring(0,n)+ut(t.substring(n+1),e,e)}function ot(t){var n=arguments.length>1&&void 0!==arguments[1]?arguments[1]:27;return!t||t%n?t%n:ot(t/n,n)}function at(t,n,e){if(t&&t.length){var r=it(e),i=it(n),u=ot(r)+5,o=ut(t,ot(r,5),u);return o=o.replace(/\x7c$/g,"==").replace(/\x2f$/g,"="),o=function(t,n,e){var r=+("0x"+t.substring(0,4));t=t.substring(4);for(var i=n%r+e%27,u=[],o=0;o<t.length;o+=2)if("|"!==t[o]){var a=+("0x"+t[o]+t[o+1])-i;u.push(a)}else{var l=+("0x"+t.substring(o+1,o+1+4))-i;o+=3,u.push(l)}return String.fromCharCode.apply(String,u)}(o=(o=atob(o)).replace(/[\x41-\x5A]/g,""),i,r),o=JSON.parse(o)}}var lt=[{key:"alternate",def:!1},{key:"fill",def:1},{key:"iterations",def:0},{key:"direction",def:1},{key:"speed",def:1},{key:"fps",def:100}],st=function(){function t(n,e){var i=this,u=arguments.length>2&&void 0!==arguments[2]?arguments[2]:null;r(this,t),this._id=0,this._running=!1,this._rollingBack=!1,this._animations=n,this._settings=e,(!u||u<"2022-05-02")&&delete this._settings.speed,lt.forEach((function(t){i._settings[t.key]=i._settings[t.key]||t.def})),this.duration=e.duration,this.offset=e.offset||0,this.rollbackStartOffset=0}return u(t,[{key:"alternate",get:function(){return this._settings.alternate}},{key:"fill",get:function(){return this._settings.fill}},{key:"iterations",get:function(){return this._settings.iterations}},{key:"direction",get:function(){return this._settings.direction}},{key:"speed",get:function(){return this._settings.speed}},{key:"fps",get:function(){return this._settings.fps}},{key:"maxFiniteDuration",get:function(){return this.iterations>0?this.iterations*this.duration:this.duration}},{key:"_apply",value:function(t){for(var n=arguments.length>1&&void 0!==arguments[1]?arguments[1]:{},e=this._animations,r=e.length,i=0,u=0;u<r;u++)n[u]?i++:(n[u]=e[u](t,1),n[u]&&i++);return i}},{key:"_rollback",value:function(t){var n=this,e=1/0,r=null;this.rollbackStartOffset=t,this._rollingBack=!0,this._running=!0;this._id=window.requestAnimationFrame((function i(u){if(n._rollingBack){null==r&&(r=u);var o=Math.round(t-(u-r)*n.speed);if(o>n.duration&&e!==1/0){var a=!!n.alternate&&o/n.duration%2>1,l=o%n.duration;o=(l+=a?n.duration:0)||n.duration}var s=(n.fps?1e3/n.fps:0)*n.speed,f=Math.max(0,o);f<=e-s&&(n.offset=f,e=f,n._apply(f));var c=n.iterations>0&&-1===n.fill&&o>=n.maxFiniteDuration;(o<=0||n.offset<o||c)&&n.stop(),n._id=window.requestAnimationFrame(i)}}))}},{key:"_start",value:function(){var t=this,n=arguments.length>0&&void 0!==arguments[0]?arguments[0]:0,e=-1/0,r=null,i={};this._running=!0;var u=function u(o){null==r&&(r=o);var a=Math.round((o-r)*t.speed+n),l=(t.fps?1e3/t.fps:0)*t.speed;if(a>=e+l&&!t._rollingBack&&(t.offset=a,e=a,t._apply(a,i)===t._animations.length))return void t.pause(!0);t._id=window.requestAnimationFrame(u)};this._id=window.requestAnimationFrame(u)}},{key:"_pause",value:function(){this._id&&window.cancelAnimationFrame(this._id),this._running=!1}},{key:"play",value:function(){if(!this._running)return this._rollingBack?this._rollback(this.offset):this._start(this.offset)}},{key:"stop",value:function(){this._pause(),this.offset=0,this.rollbackStartOffset=0,this._rollingBack=!1,this._apply(0)}},{key:"reachedToEnd",value:function(){return this.iterations>0&&this.offset>=this.iterations*this.duration}},{key:"restart",value:function(){var t=arguments.length>0&&void 0!==arguments[0]&&arguments[0];this.stop(t),this.play(t)}},{key:"pause",value:function(){this._pause()}},{key:"reverse",value:function(){this.direction=-this.direction}}],[{key:"build",value:function(t,n){delete t.animationSettings,t.options=at(t.options,t.root,"5c7f360c"),t.animations.map((function(n){n.settings=at(n.s,t.root,"5c7f360c"),delete n.s,t.animationSettings||(t.animationSettings=n.settings)}));var e=t.version;if(!(t=rt(t,n)))return null;var r=t.options||{},i=new this(t.animations,t.animationSettings,e);return{el:t.svg,options:r,player:i}}},{key:"push",value:function(t){return this.build(t)}},{key:"init",value:function(){var t=this,n=window.__SVGATOR_PLAYER__&&window.__SVGATOR_PLAYER__["5c7f360c"];Array.isArray(n)&&n.splice(0).forEach((function(n){return t.build(n)}))}}]),t}();function ft(t){return p(t)+""}function ct(t){var n=arguments.length>1&&void 0!==arguments[1]?arguments[1]:" ";return t&&t.length?t.map(ft).join(n):""}function ht(t){if(!t)return"transparent";if(null==t.a||t.a>=1){var n=function(t){return 1===(t=parseInt(t).toString(16)).length?"0"+t:t},e=function(t){return t.charAt(0)===t.charAt(1)},r=n(t.r),i=n(t.g),u=n(t.b);return e(r)&&e(i)&&e(u)&&(r=r.charAt(0),i=i.charAt(0),u=u.charAt(0)),"#"+r+i+u}return"rgba("+t.r+","+t.g+","+t.b+","+t.a+")"}function vt(t){return t?"url(#"+t+")":"none"}!function(){for(var t=0,n=["ms","moz","webkit","o"],e=0;e<n.length&&!window.requestAnimationFrame;++e)window.requestAnimationFrame=window[n[e]+"RequestAnimationFrame"],window.cancelAnimationFrame=window[n[e]+"CancelAnimationFrame"]||window[n[e]+"CancelRequestAnimationFrame"];window.requestAnimationFrame||(window.requestAnimationFrame=function(n){var e=Date.now(),r=Math.max(0,16-(e-t)),i=window.setTimeout((function(){n(e+r)}),r);return t=e+r,i},window.cancelAnimationFrame=window.clearTimeout)}();var yt={f:null,i:function(t,n,e){return 0===t?n:1===t?e:{x:B(t,n.x,e.x),y:B(t,n.y,e.y)}},u:function(t,n){return function(e){var r=n(e);t.setAttribute("rx",ft(r.x)),t.setAttribute("ry",ft(r.y))}}},gt={f:null,i:function(t,n,e){return 0===t?n:1===t?e:{width:B(t,n.width,e.width),height:B(t,n.height,e.height)}},u:function(t,n){return function(e){var r=n(e);t.setAttribute("width",ft(r.width)),t.setAttribute("height",ft(r.height))}}};Object.freeze({M:2,L:2,Z:0,H:1,V:1,C:6,Q:4,T:2,S:4,A:7});var pt={},dt=null;function mt(t){var n=function(){if(dt)return dt;if("object"!==("undefined"==typeof document?"undefined":e(document))||!document.createElementNS)return{};var t=document.createElementNS("http://www.w3.org/2000/svg","svg");return t&&t.style?(t.style.position="absolute",t.style.opacity="0.01",t.style.zIndex="-9999",t.style.left="-9999px",t.style.width="1px",t.style.height="1px",dt={svg:t}):{}}().svg;if(!n)return function(t){return null};var r=document.createElementNS(n.namespaceURI,"path");r.setAttributeNS(null,"d",t),r.setAttributeNS(null,"fill","none"),r.setAttributeNS(null,"stroke","none"),n.appendChild(r);var i=r.getTotalLength();return function(t){var n=r.getPointAtLength(i*t);return{x:n.x,y:n.y}}}function bt(t){return pt[t]?pt[t]:pt[t]=mt(t)}function wt(t,n,e,r){if(!t||!r)return!1;var i=["M",t.x,t.y];if(n&&e&&(i.push("C"),i.push(n.x),i.push(n.y),i.push(e.x),i.push(e.y)),n?!e:e){var u=n||e;i.push("Q"),i.push(u.x),i.push(u.y)}return n||e||i.push("L"),i.push(r.x),i.push(r.y),i.join(" ")}function At(t,n,e,r){var i=arguments.length>4&&void 0!==arguments[4]?arguments[4]:1,u=wt(t,n,e,r),o=bt(u);try{return o(i)}catch(t){return null}}function _t(t,n,e){return t+(n-t)*e}function xt(t,n,e){var r=arguments.length>3&&void 0!==arguments[3]&&arguments[3],i={x:_t(t.x,n.x,e),y:_t(t.y,n.y,e)};return r&&(i.a=kt(t,n)),i}function kt(t,n){return Math.atan2(n.y-t.y,n.x-t.x)}function St(t,n,e,r){var i=1-r;return i*i*t+2*i*r*n+r*r*e}function Ot(t,n,e,r){return 2*(1-r)*(n-t)+2*r*(e-n)}function jt(t,n,e,r){var i=arguments.length>4&&void 0!==arguments[4]&&arguments[4],u=At(t,n,null,e,r);return u||(u={x:St(t.x,n.x,e.x,r),y:St(t.y,n.y,e.y,r)}),i&&(u.a=Et(t,n,e,r)),u}function Et(t,n,e,r){return Math.atan2(Ot(t.y,n.y,e.y,r),Ot(t.x,n.x,e.x,r))}function Mt(t,n,e,r,i){var u=i*i;return i*u*(r-t+3*(n-e))+3*u*(t+e-2*n)+3*i*(n-t)+t}function Pt(t,n,e,r,i){var u=1-i;return 3*(u*u*(n-t)+2*u*i*(e-n)+i*i*(r-e))}function It(t,n,e,r,i){var u=arguments.length>5&&void 0!==arguments[5]&&arguments[5],o=At(t,n,e,r,i);return o||(o={x:Mt(t.x,n.x,e.x,r.x,i),y:Mt(t.y,n.y,e.y,r.y,i)}),u&&(o.a=Rt(t,n,e,r,i)),o}function Rt(t,n,e,r,i){return Math.atan2(Pt(t.y,n.y,e.y,r.y,i),Pt(t.x,n.x,e.x,r.x,i))}function Ft(t,n,e){var r=arguments.length>3&&void 0!==arguments[3]&&arguments[3];if(Tt(n)){if(qt(e))return jt(n,e.start,e,t,r)}else if(Tt(e)){if(Bt(n))return jt(n,n.end,e,t,r)}else{if(Bt(n))return qt(e)?It(n,n.end,e.start,e,t,r):jt(n,n.end,e,t,r);if(qt(e))return jt(n,e.start,e,t,r)}return xt(n,e,t,r)}function Nt(t,n,e){var r=Ft(t,n,e,!0);return r.a=function(t){return arguments.length>1&&void 0!==arguments[1]&&arguments[1]?t+Math.PI:t}(r.a)/m,r}function Tt(t){return!t.type||"corner"===t.type}function qt(t){return null!=t.start&&!Tt(t)}function Bt(t){return null!=t.end&&!Tt(t)}var Dt=new N;var Lt={f:ft,i:q},Ct={f:ft,i:D};function Vt(t,n,e){return t.map((function(t){return function(t,n,e){var r=t.v;if(!r||"g"!==r.t||r.s||!r.v||!r.r)return t;var i=e.getElementById(r.r),u=i&&i.querySelectorAll("stop")||[];return r.s=r.v.map((function(t,n){var e=u[n]&&u[n].getAttribute("offset");return{c:t,o:e=p(parseInt(e)/100)}})),delete r.v,t}(t,0,e)}))}var Gt={gt:"gradientTransform",c:{x:"cx",y:"cy"},rd:"r",f:{x:"x1",y:"y1"},to:{x:"x2",y:"y2"}};function zt(t,n,r,i,u,o,a,l){return Vt(t,0,l),n=function(t,n,e){for(var r,i,u,o=t.length-1,a={},l=0;l<=o;l++)(r=t[l]).e&&(r.e=n(r.e)),r.v&&"g"===(i=r.v).t&&i.r&&(u=e.getElementById(i.r))&&(a[i.r]={e:u,s:u.querySelectorAll("stop")});return a}(t,i,l),function(i){var u=r(i,t,Yt);if(!u)return"none";if("c"===u.t)return ht(u.v);if("g"===u.t){if(!n[u.r])return vt(u.r);var o=n[u.r];return function(t,n){for(var e=t.s,r=e.length;r<n.length;r++){var i=e[e.length-1].cloneNode();i.id=Qt(i.id),t.e.appendChild(i),e=t.s=t.e.querySelectorAll("stop")}for(var u=0,o=e.length,a=n.length-1;u<o;u++)e[u].setAttribute("stop-color",ht(n[Math.min(u,a)].c)),e[u].setAttribute("offset",n[Math.min(u,a)].o)}(o,u.s),Object.keys(Gt).forEach((function(t){if(void 0!==u[t])if("object"!==e(Gt[t])){var n,r="gt"===t?(n=u[t],Array.isArray(n)?"matrix("+n.join(" ")+")":""):u[t],i=Gt[t];o.e.setAttribute(i,r)}else Object.keys(Gt[t]).forEach((function(n){if(void 0!==u[t][n]){var e=u[t][n],r=Gt[t][n];o.e.setAttribute(r,e)}}))})),vt(u.r)}return"none"}}function Yt(t,e,r){if(0===t)return e;if(1===t)return r;if(e&&r){var i=e.t;if(i===r.t)switch(e.t){case"c":return{t:i,v:V(t,e.v,r.v)};case"g":if(e.r===r.r){var u={t:i,s:$t(t,e.s,r.s),r:e.r};return e.gt&&r.gt&&(u.gt=function(t,n,e){var r=n.length;if(r!==e.length)return T(t,n,e);for(var i=new Array(r),u=0;u<r;u++)i[u]=q(t,n[u],e[u]);return i}(t,e.gt,r.gt)),e.c?(u.c=L(t,e.c,r.c),u.rd=B(t,e.rd,r.rd)):e.f&&(u.f=L(t,e.f,r.f),u.to=L(t,e.to,r.to)),u}}if("c"===e.t&&"g"===r.t||"c"===r.t&&"g"===e.t){var o="c"===e.t?e:r,a="g"===e.t?n({},e):n({},r),l=a.s.map((function(t){return{c:o.v,o:t.o}}));return a.s="c"===e.t?$t(t,l,a.s):$t(t,a.s,l),a}}return T(t,e,r)}function $t(t,n,e){if(n.length===e.length)return n.map((function(n,r){return Ut(t,n,e[r])}));for(var r=Math.max(n.length,e.length),i=[],u=0;u<r;u++){var o=Ut(t,n[Math.min(u,n.length-1)],e[Math.min(u,e.length-1)]);i.push(o)}return i}function Ut(t,n,e){return{o:D(t,n.o,e.o||0),c:V(t,n.c,e.c||{})}}function Qt(t){return t.replace(/-fill-([0-9]+)$/,(function(t,n){return"-fill-"+(+n+1)}))}var Ht={fill:zt,"fill-opacity":Ct,stroke:zt,"stroke-opacity":Ct,"stroke-width":Lt,"stroke-dashoffset":{f:ft,i:q},"stroke-dasharray":{f:function(t){var n=arguments.length>1&&void 0!==arguments[1]?arguments[1]:" ";return t&&t.length>0&&(t=t.map((function(t){return p(t,4)}))),ct(t,n)},i:function(t,n,e){var r,i,u,o=n.length,a=e.length;if(o!==a)if(0===o)n=G(o=a,0);else if(0===a)a=o,e=G(o,0);else{var l=(u=(r=o)*(i=a)/function(t,n){for(var e;n;)e=n,n=t%n,t=e;return t||1}(r,i))<0?-u:u;n=z(n,Math.floor(l/o)),e=z(e,Math.floor(l/a)),o=a=l}for(var s=[],f=0;f<o;f++)s.push(p(B(t,n[f],e[f])));return s}},opacity:Ct,transform:function(t,n,r,i){if(!(t=function(t,n){if(!t||"object"!==e(t))return null;var r=!1;for(var i in t)t.hasOwnProperty(i)&&(t[i]&&t[i].length?(t[i].forEach((function(t){t.e&&(t.e=n(t.e))})),r=!0):delete t[i]);return r?t:null}(t,i)))return null;var u=function(e,i,u){var o=arguments.length>3&&void 0!==arguments[3]?arguments[3]:null;return t[e]?r(i,t[e],u):n&&n[e]?n[e]:o};return n&&n.a&&t.o?function(n){var e=r(n,t.o,Nt);return Dt.recomposeSelf(e,u("r",n,q,0)+e.a,u("k",n,L),u("s",n,L),u("t",n,L)).toString()}:function(t){return Dt.recomposeSelf(u("o",t,Ft,null),u("r",t,q,0),u("k",t,L),u("s",t,L),u("t",t,L)).toString()}},r:Lt,"#size":gt,"#radius":yt,_:function(t,n){if(Array.isArray(t))for(var e=0;e<t.length;e++)this[t[e]]=n;else this[t]=n}},Jt=function(t){!function(t,n){if("function"!=typeof n&&null!==n)throw new TypeError("Super expression must either be null or a function");t.prototype=Object.create(n&&n.prototype,{constructor:{value:t,writable:!0,configurable:!0}}),n&&l(t,n)}(o,t);var n,e,i=(n=o,e=s(),function(){var t,r=a(n);if(e){var i=a(this).constructor;t=Reflect.construct(r,arguments,i)}else t=r.apply(this,arguments);return c(this,t)});function o(){return r(this,o),i.apply(this,arguments)}return u(o,null,[{key:"build",value:function(t){var n=h(a(o),"build",this).call(this,t,Ht);if(!n)return null;n.el,n.options,function(t,n,e){t.play()}(n.player)}}]),o}(st);return Jt.init(),Jt}));
(function(s,i,o,w,d,a,b){w[o]=w[o]||{};w[o][s]=w[o][s]||[];w[o][s].push(i);})('5c7f360c',{"root":"eE1ZTBKzVmj1","version":"2022-05-04","animations":[{"elements":{"eE1ZTBKzVmj5":{"transform":{"data":{"t":{"x":-920.05368,"y":-478.5}},"keys":{"o":[{"t":0,"v":{"x":920.05368,"y":478.5,"type":"corner"}},{"t":2000,"v":{"x":920.05368,"y":468.502349,"type":"corner"}},{"t":4000,"v":{"x":920.05368,"y":478.502349,"type":"corner"}}]}}},"eE1ZTBKzVmj8":{"transform":{"data":{"t":{"x":-938.16153,"y":-396.561493}},"keys":{"o":[{"t":0,"v":{"x":940.130829,"y":390.800924,"type":"corner"}},{"t":2000,"v":{"x":940.130829,"y":374.79936,"type":"corner"}},{"t":4000,"v":{"x":940.130829,"y":390.79936,"type":"corner"}}]}}},"eE1ZTBKzVmj21":{"transform":{"data":{"t":{"x":-912.753296,"y":-304.561996}},"keys":{"o":[{"t":0,"v":{"x":912.753296,"y":292.188019,"type":"cusp","end":{"x":912.752626,"y":283.300917}},"e":[0.42,0,0.58,1]},{"t":2000,"v":{"x":912.751064,"y":262.564345,"type":"cusp","start":{"x":912.751064,"y":262.564345}}},{"t":4000,"v":{"x":912.748831,"y":294.564345,"type":"corner"}}]}}},"eE1ZTBKzVmj60":{"transform":{"data":{"o":{"x":728.141939,"y":181.191413,"type":"corner"},"t":{"x":-726.093994,"y":-191.186483}},"keys":{"r":[{"t":0,"v":0},{"t":4000,"v":360}]}}},"eE1ZTBKzVmj61":{"transform":{"data":{"o":{"x":1082.595032,"y":546.000061,"type":"corner"},"t":{"x":-1082.595032,"y":-546.000061}},"keys":{"r":[{"t":0,"v":360},{"t":4000,"v":720}]}}}},"s":"MADA1ZGRhSjgxYzNkNGFQxYzBkM1ZjOGNlY2QP4MTk5OTM4ZjhmOGY4YYjgxYzNjOGQxYzRjMRmQzYzhjZWNkODE5OTNkwOGI4MWM4ZDNjNGQVxYzBkM2M4Y2VjZGQyQODE5OThmOGI4MWM1TOmM4Y2JjYjgxOTk5MEL04YjgxYzBjYkJkM2MX0ZDFjZGMwZDNjNFE4YMTk5YzVjMGNiTmQyYWzQ4YjgxZDJjZmM0YzFRjMzgxOTk5MDhiODFQjNU1jZlBkMko4MTk5FOTA4ZjhmZGM/"}],"options":"MHDAxMDg4MmY4MDgxNmWU3ZjgxMmY0NzJmNzkL3YzZlNzEyZjhh"},'__SVGATOR_PLAYER__',window,document)
]]></script>
</svg>
