<svg width="1278" height="1452" viewBox="0 0 1278 1452" fill="none" xmlns="http://www.w3.org/2000/svg">
<g id="robo-anima">
<g id="cards">
<g id="card3" filter="url(#filter0_b_99520_92)">
<rect width="178" height="284" rx="20" transform="matrix(0.866025 0.5 -0.866025 0.5 965.953 363)" fill="url(#paint0_linear_99520_92)"/>
<rect x="-2.98023e-08" y="0.5" width="177" height="283" rx="19.5" transform="matrix(0.866025 0.5 -0.866025 0.5 966.386 363.25)" stroke="url(#paint1_linear_99520_92)"/>
</g>
<g id="card2" filter="url(#filter1_d_99520_92)">
<rect id="Rectangle 14400" x="-2.05613e-08" y="0.344961" width="177.31" height="283.558" rx="13.4535" transform="matrix(0.866025 0.5 -0.866025 0.5 984.467 281.172)" fill="url(#paint2_linear_99520_92)" stroke="url(#paint3_linear_99520_92)" stroke-width="0.689923"/>
<g id="Bank Logo" opacity="0.9">
<rect id="Left Sphere / 48%" opacity="0.75" x="4.47035e-08" y="-0.25" width="19.2897" height="19.2897" rx="9.64486" transform="matrix(-0.866025 -0.5 0.866026 -0.5 893.156 497.496)" stroke="url(#paint4_linear_99520_92)" stroke-width="0.5"/>
<rect id="Right Sphere / 70%" opacity="0.7" x="4.47035e-08" y="-0.25" width="19.2897" height="19.2897" rx="9.64486" transform="matrix(-0.866025 -0.5 0.866026 -0.5 882.81 491.522)" stroke="url(#paint5_linear_99520_92)" stroke-width="0.5"/>
</g>
<g id="WAK SUNARI" filter="url(#filter2_d_99520_92)">
<path d="M788.181 415.924L781.857 418.118L780.853 417.539L783.7 414.662L778.717 416.305L777.713 415.726L781.513 412.075L782.409 412.592L779.168 415.473L784.395 413.739L785.299 414.26L782.295 417.278L787.285 415.407L788.181 415.924ZM788.684 420.793L786.547 419.559L785.063 419.969L784.188 419.464L791.035 417.663L791.975 418.206L788.848 422.155L787.974 421.65L788.684 420.793ZM789.085 420.296L790.612 418.446L787.407 419.327L789.085 420.296ZM794.316 422.356L793.987 425.121L792.99 424.546L793.334 422.037L790.99 423.391L790.172 422.919L795.234 419.997L796.052 420.468L793.736 421.806L798.059 421.628L799.049 422.199L794.316 422.356ZM802.387 428.415C802.138 428.558 801.847 428.657 801.512 428.713C801.182 428.765 800.831 428.758 800.458 428.692C800.085 428.626 799.722 428.49 799.368 428.286C799.024 428.088 798.775 427.875 798.622 427.649C798.474 427.42 798.429 427.195 798.486 426.974C798.544 426.753 798.704 426.553 798.967 426.374L799.841 426.879C799.645 427.02 799.55 427.182 799.555 427.367C799.564 427.555 799.707 427.729 799.985 427.889C800.233 428.032 800.491 428.104 800.759 428.104C801.032 428.107 801.273 428.048 801.483 427.926C801.665 427.821 801.763 427.707 801.777 427.582C801.796 427.456 801.765 427.33 801.684 427.206C801.603 427.082 801.476 426.92 801.304 426.721C801.089 426.481 800.931 426.274 800.831 426.101C800.735 425.929 800.714 425.749 800.766 425.558C800.819 425.368 801 425.183 801.311 425.004C801.584 424.846 801.89 424.747 802.229 424.706C802.568 424.664 802.917 424.683 803.276 424.763C803.639 424.841 803.983 424.973 804.308 425.161C804.824 425.459 805.109 425.767 805.161 426.084C805.219 426.404 805.068 426.692 804.71 426.949L803.828 426.44C803.986 426.31 804.057 426.164 804.043 426.001C804.038 425.838 803.909 425.684 803.656 425.538C803.426 425.405 803.183 425.333 802.924 425.322C802.671 425.309 802.434 425.365 802.215 425.492C802.042 425.591 801.947 425.702 801.928 425.823C801.913 425.942 801.945 426.062 802.021 426.183C802.107 426.305 802.234 426.463 802.401 426.659C802.621 426.902 802.779 427.112 802.874 427.289C802.979 427.465 803.003 427.65 802.946 427.843C802.893 428.039 802.707 428.23 802.387 428.415ZM808.417 427.608L805.413 429.342C804.964 429.602 804.727 429.851 804.703 430.092C804.684 430.334 804.854 430.559 805.212 430.766C805.566 430.971 805.951 431.066 806.367 431.052C806.787 431.041 807.222 430.906 807.672 430.646L810.676 428.912L811.493 429.384L808.489 431.118C807.796 431.518 807.091 431.718 806.374 431.718C805.662 431.716 805.012 431.545 804.424 431.205C803.841 430.868 803.549 430.496 803.549 430.087C803.554 429.676 803.903 429.271 804.596 428.87L807.6 427.136L808.417 427.608ZM812.195 435.634L811.378 435.162L812.654 431.586L808.919 433.742L808.101 433.27L813.156 430.352L813.973 430.824L812.683 434.409L816.433 432.244L817.25 432.716L812.195 435.634ZM818.017 437.729L815.88 436.495L814.396 436.905L813.522 436.4L820.369 434.599L821.308 435.141L818.182 439.09L817.307 438.585L818.017 437.729ZM818.419 437.232L819.946 435.381L816.741 436.263L818.419 437.232ZM822.166 441.391L822.926 439.495L822.345 439.159L820.323 440.327L819.506 439.855L824.568 436.932L826.353 437.963C826.931 438.297 827.228 438.631 827.242 438.965C827.261 439.301 827.039 439.604 826.575 439.871C826.179 440.1 825.741 440.223 825.263 440.24C824.79 440.259 824.307 440.168 823.815 439.967L823.084 441.92L822.166 441.391ZM822.926 438.824L823.829 439.346C824.489 439.726 825.11 439.749 825.693 439.412C825.971 439.252 826.104 439.081 826.095 438.899C826.095 438.716 825.925 438.527 825.586 438.331L824.682 437.81L822.926 438.824ZM830.387 440.292L825.325 443.215L824.508 442.743L829.57 439.82L830.387 440.292Z" fill="white"/>
</g>
<g id="06/2024" filter="url(#filter3_d_99520_92)">
<path d="M767.275 420.415C766.598 420.806 766.182 421.175 766.027 421.522C765.871 421.869 766.068 422.202 766.618 422.519C767.168 422.836 767.743 422.95 768.345 422.86C768.95 422.773 769.592 422.534 770.269 422.143C770.938 421.757 771.348 421.389 771.5 421.039C771.655 420.692 771.458 420.36 770.908 420.042C770.358 419.725 769.783 419.611 769.181 419.701C768.584 419.788 767.948 420.026 767.275 420.415ZM769.731 421.832C769.384 422.033 769.068 422.186 768.781 422.291C768.502 422.397 768.223 422.45 767.945 422.45C767.666 422.45 767.395 422.374 767.132 422.222C766.873 422.073 766.744 421.918 766.744 421.757C766.744 421.596 766.833 421.433 767.012 421.27C767.2 421.107 767.467 420.925 767.813 420.725C768.156 420.527 768.466 420.376 768.745 420.27C769.028 420.166 769.307 420.116 769.582 420.118C769.86 420.118 770.129 420.193 770.388 420.342C770.651 420.494 770.783 420.65 770.783 420.811C770.787 420.97 770.697 421.13 770.514 421.291C770.334 421.454 770.074 421.635 769.731 421.832ZM774.279 423.355C774.499 423.191 774.606 423.03 774.602 422.872C774.606 422.713 774.487 422.564 774.244 422.423C773.905 422.228 773.517 422.155 773.078 422.206C772.644 422.259 772.142 422.45 771.573 422.779L771.358 422.91C771.656 422.806 771.983 422.776 772.338 422.82C772.696 422.861 773.021 422.966 773.312 423.134C773.73 423.375 773.931 423.636 773.915 423.917C773.903 424.2 773.672 424.471 773.222 424.731C772.959 424.883 772.668 424.991 772.35 425.055C772.035 425.117 771.706 425.123 771.364 425.073C771.029 425.022 770.704 424.906 770.39 424.724C769.788 424.377 769.563 424.028 769.715 423.679C769.87 423.332 770.272 422.971 770.922 422.596C771.67 422.163 772.352 421.908 772.965 421.83C773.586 421.752 774.17 421.87 774.716 422.185C775.118 422.418 775.313 422.661 775.301 422.917C775.293 423.174 775.126 423.42 774.799 423.655L774.279 423.355ZM770.862 423.265C770.571 423.433 770.41 423.623 770.378 423.834C770.354 424.046 770.511 424.249 770.85 424.445C771.129 424.606 771.433 424.687 771.764 424.69C772.099 424.69 772.415 424.603 772.714 424.431C773.037 424.245 773.198 424.055 773.198 423.862C773.202 423.666 773.057 423.483 772.762 423.313C772.595 423.217 772.401 423.144 772.182 423.096C771.963 423.048 771.736 423.036 771.501 423.061C771.27 423.084 771.057 423.152 770.862 423.265ZM780.016 423.734L771.729 426.629L771.203 426.325L779.484 423.427L780.016 423.734ZM775.081 426.901C776.212 427.03 777.204 427.083 778.056 427.06C778.913 427.035 779.534 426.911 779.921 426.687C780.16 426.549 780.289 426.403 780.309 426.249C780.337 426.095 780.215 425.94 779.945 425.784C779.666 425.623 779.365 425.553 779.042 425.573C778.724 425.592 778.401 425.686 778.074 425.856L777.537 425.546C778.035 425.29 778.54 425.166 779.054 425.173C779.572 425.178 780.038 425.3 780.452 425.539C780.847 425.766 781.054 426.008 781.074 426.263C781.094 426.518 780.91 426.758 780.524 426.981C780.205 427.165 779.777 427.292 779.239 427.364C778.71 427.435 778.148 427.462 777.555 427.446C776.969 427.43 776.415 427.384 775.894 427.308L778.033 428.543L777.584 428.802L774.687 427.129L775.081 426.901ZM780.275 427.92C779.598 428.311 779.182 428.68 779.027 429.028C778.871 429.375 779.068 429.707 779.618 430.025C780.168 430.342 780.743 430.456 781.345 430.366C781.95 430.279 782.592 430.04 783.269 429.649C783.938 429.262 784.348 428.894 784.5 428.545C784.655 428.197 784.458 427.865 783.908 427.548C783.358 427.23 782.783 427.117 782.181 427.206C781.584 427.294 780.949 427.532 780.275 427.92ZM782.731 429.338C782.385 429.538 782.068 429.691 781.781 429.797C781.502 429.903 781.223 429.956 780.945 429.956C780.666 429.956 780.395 429.88 780.132 429.728C779.873 429.578 779.744 429.423 779.744 429.262C779.744 429.101 779.833 428.939 780.013 428.776C780.2 428.613 780.467 428.431 780.813 428.231C781.156 428.033 781.466 427.881 781.745 427.775C782.028 427.672 782.307 427.621 782.582 427.624C782.861 427.624 783.129 427.698 783.388 427.848C783.651 428 783.783 428.156 783.783 428.317C783.787 428.476 783.697 428.636 783.514 428.797C783.335 428.96 783.074 429.14 782.731 429.338ZM782.141 430.978C783.272 431.106 784.264 431.159 785.117 431.136C785.973 431.111 786.594 430.987 786.981 430.764C787.22 430.626 787.349 430.48 787.369 430.326C787.397 430.171 787.276 430.016 787.005 429.86C786.726 429.699 786.425 429.629 786.102 429.649C785.784 429.668 785.461 429.762 785.135 429.932L784.597 429.622C785.095 429.367 785.601 429.242 786.114 429.249C786.632 429.254 787.098 429.376 787.513 429.615C787.907 429.843 788.114 430.084 788.134 430.339C788.154 430.595 787.971 430.834 787.584 431.057C787.266 431.241 786.837 431.369 786.3 431.44C785.77 431.511 785.208 431.539 784.615 431.523C784.029 431.506 783.476 431.46 782.954 431.385L785.093 432.62L784.645 432.878L781.747 431.205L782.141 430.978ZM786.015 432.579L786.469 432.317L791.452 431.938L792.038 432.276L789.236 433.894L789.857 434.253L789.385 434.525L788.764 434.166L787.796 434.725L787.246 434.408L788.214 433.849L786.015 432.579ZM790.861 432.362L787.061 432.638L788.722 433.597L790.861 432.362Z" fill="white" fill-opacity="0.7" shape-rendering="crispEdges"/>
</g>
<g id="Group 481761">
<rect id="Rectangle 14295" x="-2.98023e-08" y="0.5" width="23.8605" height="18.0421" rx="1.5" transform="matrix(0.866025 0.5 -0.866025 0.5 885.633 414.822)" stroke="white"/>
</g>
<g id="Conection Icon" style="mix-blend-mode:overlay">
<path d="M873.996 434.599C872.799 434.439 870.335 433.763 870.064 432.333M872.371 437.164C870.513 436.889 866.56 435.726 865.612 433.269M871.153 439.566C868.678 439.174 863.308 437.529 861.628 434.078M869.42 441.91C866.405 441.499 859.812 439.557 857.56 435.076" stroke="white" stroke-width="1.37985" stroke-linecap="round" stroke-linejoin="round"/>
</g>
</g>
<g id="card1" filter="url(#filter4_d_99520_92)">
<g id="Rectangle 14400_2" filter="url(#filter5_b_99520_92)">
<rect width="178" height="284.248" rx="13.7985" transform="matrix(0.866025 0.5 -0.866025 0.5 958.76 189)" fill="url(#paint6_linear_99520_92)"/>
<rect x="-2.05613e-08" y="0.344961" width="177.31" height="283.558" rx="13.4535" transform="matrix(0.866025 0.5 -0.866025 0.5 959.059 189.172)" stroke="url(#paint7_linear_99520_92)" stroke-width="0.689923"/>
</g>
<g id="Rectangle 14401" filter="url(#filter6_b_99520_92)">
<path d="M802.217 279.38L956.37 368.38L890.646 406.326C879.379 412.83 873.746 416.083 866.746 416.083C859.746 416.083 854.113 412.83 842.847 406.326L736.493 344.923C725.227 338.418 719.594 335.166 719.594 331.124C719.594 327.083 725.227 323.83 736.493 317.326L802.217 279.38Z" fill="url(#paint8_linear_99520_92)"/>
</g>
<g id="Group 481759">
<g id="HooBank">
<path d="M1033.74 262.396L1026.15 266.78L1024.62 265.898L1027.92 263.992L1024.68 262.117L1021.38 264.023L1019.86 263.147L1027.45 258.764L1028.97 259.639L1025.89 261.415L1029.14 263.29L1032.22 261.514L1033.74 262.396ZM1036.31 265.68C1036.89 266.015 1037.29 266.386 1037.51 266.791C1037.73 267.201 1037.74 267.617 1037.54 268.04C1037.34 268.458 1036.94 268.847 1036.31 269.207C1035.69 269.567 1035.01 269.803 1034.29 269.915C1033.57 270.027 1032.85 270.02 1032.13 269.896C1031.43 269.772 1030.78 269.542 1030.2 269.207C1029.62 268.872 1029.22 268.499 1029 268.089C1028.79 267.679 1028.78 267.265 1028.98 266.847C1029.17 266.429 1029.58 266.04 1030.2 265.68C1030.83 265.32 1031.5 265.084 1032.23 264.972C1032.96 264.856 1033.67 264.86 1034.38 264.985C1035.09 265.113 1035.73 265.345 1036.31 265.68ZM1035 266.438C1034.58 266.193 1034.07 266.073 1033.47 266.077C1032.89 266.077 1032.31 266.241 1031.74 266.568C1031.18 266.895 1030.89 267.23 1030.88 267.574C1030.88 267.913 1031.09 268.205 1031.52 268.449C1031.94 268.694 1032.44 268.816 1033.03 268.816C1033.63 268.812 1034.21 268.646 1034.77 268.319C1035.34 267.992 1035.62 267.659 1035.62 267.319C1035.63 266.976 1035.42 266.682 1035 266.438ZM1043.19 269.652C1043.77 269.987 1044.17 270.358 1044.39 270.763C1044.61 271.173 1044.62 271.589 1044.42 272.011C1044.22 272.429 1043.82 272.819 1043.19 273.179C1042.57 273.539 1041.89 273.775 1041.17 273.887C1040.45 273.998 1039.73 273.992 1039.01 273.868C1038.31 273.744 1037.66 273.514 1037.08 273.179C1036.5 272.843 1036.1 272.471 1035.88 272.061C1035.67 271.651 1035.66 271.237 1035.86 270.819C1036.05 270.401 1036.46 270.012 1037.08 269.652C1037.71 269.292 1038.38 269.056 1039.1 268.944C1039.84 268.828 1040.55 268.832 1041.26 268.956C1041.97 269.085 1042.61 269.316 1043.19 269.652ZM1041.88 270.409C1041.46 270.165 1040.95 270.045 1040.35 270.049C1039.76 270.049 1039.19 270.213 1038.62 270.54C1038.05 270.867 1037.77 271.202 1037.76 271.546C1037.76 271.885 1037.97 272.177 1038.4 272.421C1038.82 272.665 1039.32 272.787 1039.91 272.787C1040.51 272.783 1041.09 272.618 1041.65 272.291C1042.22 271.964 1042.5 271.63 1042.5 271.291C1042.51 270.947 1042.3 270.654 1041.88 270.409Z" fill="white"/>
<path d="M1049.44 275.704C1049.8 276.022 1049.95 276.36 1049.88 276.716C1049.82 277.072 1049.56 277.382 1049.1 277.647C1048.47 278.016 1047.74 278.183 1046.94 278.15C1046.15 278.117 1045.35 277.867 1044.54 277.399L1041.28 275.517L1048.88 271.134L1052.07 272.978C1052.84 273.421 1053.26 273.857 1053.33 274.288C1053.41 274.723 1053.14 275.116 1052.53 275.468C1052.06 275.741 1051.55 275.892 1051 275.921C1050.45 275.954 1049.93 275.882 1049.44 275.704ZM1047.21 273.847L1048.58 274.636C1048.96 274.855 1049.33 274.973 1049.68 274.99C1050.06 275.006 1050.4 274.923 1050.72 274.741C1051.03 274.559 1051.18 274.362 1051.16 274.151C1051.14 273.94 1050.92 273.719 1050.52 273.487L1049.18 272.711L1047.21 273.847ZM1045.48 276.511C1045.88 276.743 1046.27 276.871 1046.66 276.896C1047.06 276.917 1047.42 276.83 1047.76 276.635C1048.1 276.44 1048.24 276.227 1048.2 275.995C1048.17 275.764 1047.96 275.532 1047.55 275.3L1046.12 274.474L1044.04 275.679L1045.48 276.511ZM1056.47 277.317C1056.97 277.607 1057.28 277.923 1057.4 278.267C1057.53 278.61 1057.46 278.942 1057.21 279.26L1058.45 278.546L1059.95 279.416L1053.99 282.855L1052.49 281.986L1053.74 281.266C1053.18 281.411 1052.61 281.45 1052 281.384C1051.41 281.313 1050.86 281.133 1050.36 280.844C1049.86 280.554 1049.53 280.223 1049.37 279.85C1049.21 279.478 1049.25 279.093 1049.48 278.695C1049.72 278.298 1050.15 277.919 1050.78 277.559C1051.4 277.199 1052.05 276.95 1052.74 276.814C1053.43 276.677 1054.1 276.654 1054.75 276.746C1055.39 276.837 1055.97 277.027 1056.47 277.317ZM1055.62 278.354C1055.15 278.081 1054.61 277.95 1054.02 277.963C1053.42 277.975 1052.85 278.136 1052.32 278.447C1051.78 278.757 1051.5 279.084 1051.48 279.428C1051.46 279.767 1051.69 280.074 1052.17 280.347C1052.62 280.612 1053.16 280.74 1053.76 280.732C1054.37 280.724 1054.94 280.568 1055.47 280.266C1056 279.96 1056.27 279.631 1056.27 279.279C1056.3 278.927 1056.08 278.619 1055.62 278.354ZM1064.96 282.208C1065.65 282.606 1065.97 283.053 1065.93 283.55C1065.89 284.046 1065.46 284.531 1064.64 285.003L1061.18 287.002L1059.67 286.133L1062.96 284.233C1063.43 283.959 1063.68 283.678 1063.69 283.388C1063.71 283.094 1063.51 282.825 1063.09 282.581C1062.66 282.333 1062.18 282.215 1061.64 282.227C1061.1 282.239 1060.57 282.397 1060.05 282.699L1056.89 284.524L1055.37 283.649L1061.33 280.209L1062.84 281.084L1061.65 281.774C1062.21 281.633 1062.78 281.602 1063.36 281.681C1063.95 281.759 1064.49 281.935 1064.96 282.208ZM1066 289.784L1066.63 287.145L1064.03 288.648L1062.51 287.772L1070.47 283.177L1071.99 284.053L1067.51 286.636L1071.94 286.338L1073.74 287.375L1068.26 287.642L1067.84 290.852L1066 289.784Z" fill="#5CE1E6"/>
</g>
<g id="Group 481747">
<path id="Ellipse 2353" d="M1022.1 247.264C1020.2 246.173 1017.8 245.429 1015.17 245.128C1012.55 244.827 1009.83 244.981 1007.36 245.572C1004.89 246.163 1002.78 247.163 1001.29 248.447C999.809 249.731 999.016 251.24 999.016 252.784C999.016 254.327 999.809 255.837 1001.29 257.12C1002.78 258.404 1004.89 259.404 1007.36 259.995C1009.83 260.586 1012.55 260.74 1015.17 260.439C1017.8 260.138 1020.2 259.395 1022.1 258.303L1017.32 255.543C1016.37 256.089 1015.17 256.461 1013.85 256.611C1012.54 256.762 1011.18 256.685 1009.95 256.389C1008.71 256.094 1007.66 255.594 1006.92 254.952C1006.17 254.31 1005.78 253.556 1005.78 252.784C1005.78 252.012 1006.17 251.257 1006.92 250.615C1007.66 249.974 1008.71 249.473 1009.95 249.178C1011.18 248.883 1012.54 248.805 1013.85 248.956C1015.17 249.106 1016.37 249.478 1017.32 250.024L1022.1 247.264Z" fill="white"/>
<path id="Ellipse 2355" d="M1022.1 247.264C1020.84 246.539 1019.35 245.964 1017.71 245.572C1016.07 245.18 1014.31 244.978 1012.54 244.978C1010.76 244.978 1009 245.18 1007.36 245.572C1005.72 245.964 1004.23 246.539 1002.98 247.264L1007.76 250.024C1008.38 249.662 1009.13 249.374 1009.95 249.178C1010.77 248.982 1011.65 248.881 1012.54 248.881C1013.42 248.881 1014.3 248.982 1015.12 249.178C1015.94 249.374 1016.69 249.662 1017.32 250.024L1022.1 247.264Z" fill="#5CE1E6"/>
<circle id="Ellipse 2354" cx="3.44961" cy="3.44961" r="3.44961" transform="matrix(0.866025 0.5 -0.866025 0.5 1012.54 249.334)" fill="#5CE1E6"/>
<path id="Ellipse 2356" d="M1015.52 254.508C1015.92 254.282 1016.23 254.013 1016.44 253.717C1016.65 253.421 1016.76 253.104 1016.76 252.784C1016.76 252.463 1016.65 252.146 1016.44 251.85C1016.23 251.554 1015.92 251.285 1015.52 251.059C1015.13 250.832 1014.67 250.653 1014.15 250.53C1013.64 250.407 1013.09 250.344 1012.54 250.344C1011.98 250.344 1011.43 250.407 1010.92 250.53C1010.41 250.653 1009.94 250.832 1009.55 251.059L1012.54 252.784L1015.52 254.508Z" fill="white"/>
</g>
</g>
<g id="Bank Logo_2" opacity="0.9">
<rect id="Left Sphere / 48%_2" opacity="0.75" x="4.47035e-08" y="-0.25" width="19.2897" height="19.2897" rx="9.64486" transform="matrix(-0.866025 -0.5 0.866026 -0.5 867.748 405.496)" stroke="url(#paint9_linear_99520_92)" stroke-width="0.5"/>
<rect id="Right Sphere / 70%_2" opacity="0.7" x="4.47035e-08" y="-0.25" width="19.2897" height="19.2897" rx="9.64486" transform="matrix(-0.866025 -0.5 0.866026 -0.5 857.401 399.522)" stroke="url(#paint10_linear_99520_92)" stroke-width="0.5"/>
</g>
<g id="1833 7163 3892 1028" filter="url(#filter7_d_99520_92)">
<path d="M963.095 212.362L964.246 213.027L961.815 214.43L954.222 210.046L955.513 209.301L961.955 213.02L963.095 212.362ZM957.496 214.887C957.869 215.102 958.109 215.357 958.216 215.651C958.324 215.945 958.274 216.259 958.066 216.595C957.851 216.934 957.463 217.265 956.904 217.588C956.345 217.911 955.775 218.132 955.194 218.253C954.606 218.377 954.058 218.408 953.549 218.346C953.032 218.288 952.588 218.151 952.215 217.936C951.799 217.696 951.552 217.425 951.473 217.122C951.387 216.824 951.491 216.512 951.785 216.185C951.154 216.375 950.541 216.448 949.946 216.402C949.358 216.361 948.824 216.201 948.343 215.924C947.605 215.498 947.289 215.013 947.397 214.471C947.512 213.933 947.992 213.42 948.838 212.931C949.684 212.443 950.573 212.165 951.505 212.099C952.437 212.041 953.273 212.225 954.011 212.652C954.492 212.929 954.768 213.237 954.839 213.577C954.918 213.92 954.793 214.274 954.463 214.639C955.029 214.469 955.574 214.407 956.098 214.452C956.614 214.502 957.08 214.647 957.496 214.887ZM956.087 215.477C955.7 215.253 955.273 215.152 954.807 215.173C954.341 215.202 953.889 215.342 953.452 215.595C953.015 215.847 952.771 216.108 952.721 216.377C952.678 216.651 952.85 216.899 953.237 217.122C953.624 217.346 954.058 217.443 954.538 217.414C955.011 217.389 955.463 217.253 955.893 217.004C956.323 216.756 956.56 216.495 956.603 216.222C956.646 215.949 956.474 215.7 956.087 215.477ZM952.882 213.378C952.445 213.126 951.953 213.012 951.408 213.037C950.871 213.066 950.351 213.225 949.849 213.515C949.347 213.805 949.071 214.105 949.021 214.415C948.978 214.73 949.175 215.013 949.612 215.266C950.057 215.522 950.544 215.626 951.075 215.576C951.606 215.535 952.111 215.376 952.591 215.098C953.065 214.825 953.341 214.533 953.42 214.223C953.498 213.912 953.319 213.631 952.882 213.378ZM949.162 222.008C948.66 222.298 948.14 222.495 947.603 222.598C947.072 222.706 946.563 222.722 946.076 222.648C945.581 222.577 945.143 222.433 944.763 222.213C944.283 221.936 944.018 221.625 943.968 221.282C943.917 220.946 944.104 220.619 944.527 220.301L944.473 220.27C943.799 220.485 943.165 220.59 942.569 220.586C941.974 220.59 941.415 220.441 940.892 220.139C940.254 219.771 939.945 219.349 939.967 218.873C939.996 218.401 940.404 217.937 941.193 217.482C942.003 217.014 942.86 216.755 943.763 216.706C944.674 216.66 945.57 216.85 946.452 217.277L945.237 217.978C944.763 217.755 944.265 217.645 943.742 217.649C943.226 217.658 942.742 217.792 942.29 218.053C941.867 218.297 941.655 218.548 941.655 218.804C941.648 219.065 941.82 219.297 942.172 219.5C942.595 219.744 943.082 219.835 943.634 219.773C944.179 219.715 944.76 219.508 945.377 219.152L945.667 218.984L946.678 219.568L946.387 219.736C945.204 220.402 945.018 220.969 945.828 221.437C946.18 221.64 946.563 221.737 946.979 221.729C947.395 221.721 947.789 221.609 948.162 221.394C948.535 221.178 948.732 220.932 948.754 220.655C948.782 220.381 948.607 220.106 948.227 219.829L949.431 219.133C950.127 219.593 950.453 220.071 950.41 220.568C950.374 221.069 949.958 221.549 949.162 222.008ZM941.701 226.316C941.199 226.606 940.679 226.802 940.142 226.906C939.611 227.013 939.102 227.03 938.614 226.956C938.12 226.885 937.682 226.74 937.302 226.521C936.822 226.244 936.557 225.933 936.506 225.589C936.456 225.254 936.643 224.927 937.066 224.608L937.012 224.577C936.338 224.793 935.703 224.898 935.108 224.894C934.513 224.898 933.954 224.749 933.431 224.447C932.792 224.079 932.484 223.656 932.506 223.18C932.534 222.708 932.943 222.245 933.732 221.789C934.542 221.322 935.399 221.063 936.302 221.013C937.213 220.968 938.109 221.158 938.991 221.584L937.776 222.286C937.302 222.063 936.804 221.953 936.281 221.957C935.764 221.965 935.28 222.1 934.829 222.361C934.406 222.605 934.194 222.855 934.194 223.112C934.187 223.373 934.359 223.605 934.71 223.807C935.133 224.052 935.621 224.143 936.173 224.081C936.718 224.023 937.299 223.816 937.915 223.46L938.206 223.292L939.217 223.876L938.926 224.043C937.743 224.71 937.557 225.277 938.367 225.745C938.718 225.948 939.102 226.045 939.518 226.037C939.934 226.028 940.328 225.916 940.701 225.701C941.074 225.486 941.271 225.24 941.292 224.962C941.321 224.689 941.145 224.414 940.765 224.136L941.97 223.441C942.665 223.901 942.992 224.379 942.949 224.875C942.913 225.376 942.497 225.856 941.701 226.316ZM927.579 233.178L923.696 227.67L924.987 226.925L928.686 232.377L932.451 230.204L933.515 230.818L928.504 233.712L927.579 233.178ZM925.817 233.885L926.967 234.549L924.537 235.953L916.944 231.569L918.234 230.824L924.677 234.543L925.817 233.885ZM915.969 238.54C916.944 238.954 917.808 238.943 918.561 238.509C919.106 238.194 919.296 237.832 919.131 237.422C918.973 237.016 918.432 236.546 917.507 236.012L917.131 235.808C917.41 236.093 917.485 236.406 917.356 236.745C917.227 237.085 916.919 237.395 916.431 237.677C915.686 238.107 914.879 238.316 914.012 238.304C913.144 238.291 912.305 238.051 911.495 237.583C911.007 237.302 910.667 236.993 910.473 236.658C910.287 236.327 910.273 235.983 910.43 235.627C910.595 235.276 910.961 234.936 911.527 234.609C912.624 233.976 913.718 233.738 914.808 233.895C915.897 234.052 917.037 234.475 918.228 235.162C919.59 235.948 920.389 236.662 920.626 237.304C920.862 237.946 920.482 238.554 919.486 239.129C918.74 239.56 917.959 239.767 917.141 239.75C916.317 239.738 915.539 239.558 914.808 239.21L915.969 238.54ZM915.883 235.211C915.417 234.942 914.89 234.795 914.302 234.771C913.721 234.75 913.166 234.893 912.635 235.199C912.183 235.46 911.957 235.743 911.957 236.05C911.95 236.36 912.183 236.652 912.657 236.925C913.166 237.219 913.693 237.366 914.238 237.366C914.782 237.366 915.288 237.232 915.754 236.962C916.177 236.718 916.421 236.433 916.485 236.106C916.55 235.779 916.349 235.48 915.883 235.211ZM911.968 243.483C911.466 243.772 910.946 243.969 910.408 244.072C909.878 244.18 909.369 244.197 908.881 244.122C908.386 244.052 907.949 243.907 907.569 243.687C907.089 243.41 906.823 243.1 906.773 242.756C906.723 242.421 906.909 242.094 907.332 241.775L907.279 241.744C906.605 241.959 905.97 242.065 905.375 242.061C904.78 242.065 904.221 241.916 903.697 241.614C903.059 241.245 902.751 240.823 902.772 240.347C902.801 239.875 903.21 239.411 903.998 238.956C904.809 238.488 905.665 238.229 906.569 238.18C907.479 238.134 908.376 238.325 909.258 238.751L908.042 239.453C907.569 239.229 907.071 239.119 906.547 239.124C906.031 239.132 905.547 239.266 905.095 239.527C904.672 239.771 904.461 240.022 904.461 240.279C904.454 240.539 904.626 240.771 904.977 240.974C905.4 241.218 905.888 241.309 906.44 241.247C906.985 241.189 907.565 240.982 908.182 240.626L908.472 240.459L909.483 241.042L909.193 241.21C908.01 241.876 907.824 242.443 908.634 242.911C908.985 243.114 909.369 243.211 909.784 243.203C910.2 243.195 910.595 243.083 910.968 242.868C911.34 242.653 911.538 242.406 911.559 242.129C911.588 241.856 911.412 241.58 911.032 241.303L912.237 240.608C912.932 241.067 913.258 241.545 913.215 242.042C913.179 242.543 912.764 243.023 911.968 243.483ZM900.91 249.866C900.409 250.156 899.889 250.353 899.351 250.456C898.82 250.564 898.311 250.581 897.824 250.506C897.329 250.436 896.892 250.291 896.512 250.071C896.031 249.794 895.766 249.484 895.716 249.14C895.666 248.805 895.852 248.478 896.275 248.159L896.221 248.128C895.547 248.343 894.913 248.449 894.318 248.445C893.723 248.449 893.163 248.3 892.64 247.997C892.002 247.629 891.694 247.207 891.715 246.731C891.744 246.259 892.152 245.795 892.941 245.34C893.751 244.872 894.608 244.613 895.512 244.564C896.422 244.518 897.318 244.709 898.2 245.135L896.985 245.837C896.512 245.613 896.013 245.503 895.49 245.508C894.974 245.516 894.49 245.65 894.038 245.911C893.615 246.155 893.404 246.406 893.404 246.662C893.396 246.923 893.568 247.155 893.92 247.358C894.343 247.602 894.83 247.693 895.382 247.631C895.927 247.573 896.508 247.366 897.125 247.01L897.415 246.843L898.426 247.426L898.136 247.594C896.953 248.26 896.766 248.827 897.576 249.295C897.928 249.498 898.311 249.595 898.727 249.587C899.143 249.579 899.537 249.467 899.91 249.252C900.283 249.036 900.48 248.79 900.502 248.513C900.53 248.24 900.355 247.964 899.975 247.687L901.179 246.992C901.875 247.451 902.201 247.929 902.158 248.426C902.122 248.927 901.706 249.407 900.91 249.866ZM893.922 251.591C894.295 251.806 894.535 252.061 894.643 252.355C894.751 252.649 894.7 252.963 894.492 253.299C894.277 253.638 893.89 253.969 893.331 254.292C892.772 254.615 892.202 254.836 891.621 254.957C891.033 255.081 890.485 255.112 889.975 255.05C889.459 254.992 889.015 254.855 888.642 254.64C888.226 254.4 887.979 254.129 887.9 253.826C887.814 253.528 887.918 253.216 888.212 252.889C887.581 253.079 886.968 253.152 886.373 253.106C885.785 253.065 885.25 252.905 884.77 252.628C884.032 252.202 883.716 251.717 883.824 251.175C883.938 250.637 884.419 250.124 885.265 249.635C886.111 249.147 887 248.869 887.932 248.803C888.864 248.745 889.699 248.929 890.438 249.356C890.918 249.633 891.194 249.941 891.266 250.281C891.345 250.624 891.219 250.978 890.89 251.343C891.456 251.173 892.001 251.111 892.524 251.156C893.041 251.206 893.507 251.351 893.922 251.591ZM892.514 252.181C892.126 251.957 891.7 251.856 891.234 251.877C890.768 251.906 890.316 252.046 889.879 252.299C889.441 252.551 889.198 252.812 889.147 253.081C889.104 253.355 889.276 253.603 889.664 253.826C890.051 254.05 890.485 254.147 890.965 254.118C891.438 254.093 891.89 253.957 892.32 253.708C892.75 253.46 892.987 253.199 893.03 252.926C893.073 252.653 892.901 252.404 892.514 252.181ZM889.309 250.082C888.871 249.83 888.38 249.716 887.835 249.741C887.297 249.77 886.778 249.929 886.276 250.219C885.774 250.509 885.498 250.809 885.448 251.119C885.405 251.434 885.602 251.717 886.039 251.97C886.484 252.226 886.971 252.33 887.502 252.28C888.032 252.239 888.538 252.08 889.018 251.802C889.491 251.529 889.768 251.237 889.846 250.927C889.925 250.616 889.746 250.335 889.309 250.082ZM881.276 254.695C880.81 254.492 880.355 254.391 879.91 254.391C879.459 254.395 879.039 254.509 878.652 254.732C878.107 255.047 877.917 255.405 878.082 255.806C878.247 256.216 878.796 256.69 879.728 257.228L880.104 257.433C879.832 257.143 879.76 256.825 879.889 256.477C880.018 256.137 880.323 255.829 880.803 255.552C881.549 255.121 882.355 254.912 883.223 254.925C884.098 254.941 884.937 255.181 885.74 255.645C886.227 255.926 886.568 256.235 886.761 256.57C886.955 256.905 886.969 257.249 886.804 257.601C886.647 257.957 886.284 258.298 885.718 258.625C884.621 259.259 883.531 259.499 882.449 259.346C881.366 259.201 880.233 258.787 879.05 258.104C877.709 257.33 876.899 256.618 876.619 255.968C876.333 255.322 876.677 254.718 877.652 254.155C878.405 253.72 879.208 253.501 880.061 253.496C880.914 253.501 881.706 253.677 882.438 254.024L881.276 254.695ZM881.362 258.023C881.828 258.292 882.352 258.437 882.933 258.458C883.513 258.487 884.073 258.346 884.61 258.035C885.055 257.779 885.281 257.495 885.288 257.185C885.288 256.878 885.048 256.587 884.567 256.309C884.058 256.015 883.535 255.866 882.997 255.862C882.452 255.862 881.947 255.997 881.481 256.266C881.208 256.423 881.007 256.601 880.878 256.8C880.749 257.007 880.717 257.216 880.782 257.427C880.853 257.642 881.047 257.841 881.362 258.023ZM873.915 257.517C873.55 258.647 873.399 259.632 873.464 260.472C873.528 261.321 873.887 261.934 874.539 262.31C874.926 262.534 875.331 262.656 875.754 262.677C876.17 262.701 876.59 262.592 877.013 262.347C877.45 262.095 877.636 261.822 877.572 261.528C877.514 261.238 877.238 260.934 876.744 260.615L877.938 259.926C878.755 260.456 879.153 260.992 879.131 261.534C879.103 262.08 878.712 262.571 877.959 263.006C877.221 263.432 876.446 263.651 875.636 263.664C874.826 263.685 874.077 263.496 873.388 263.099C872.836 262.78 872.449 262.358 872.227 261.832C871.997 261.311 871.904 260.76 871.947 260.18C871.997 259.605 872.13 259.057 872.345 258.535L868.742 260.615L867.742 260.038L873.012 256.995L873.915 257.517ZM868.917 266.736L870.068 267.4L867.637 268.804L860.044 264.42L861.335 263.675L867.777 267.394L868.917 266.736ZM861.532 268.007C860.32 267.307 859.155 266.883 858.037 266.734C856.925 266.589 855.868 266.806 854.864 267.386C853.86 267.965 853.488 268.578 853.746 269.224C854.004 269.869 854.735 270.54 855.94 271.235C857.137 271.927 858.291 272.345 859.403 272.49C860.521 272.639 861.582 272.424 862.586 271.844C863.59 271.264 863.966 270.654 863.715 270.012C863.464 269.371 862.737 268.702 861.532 268.007ZM857.166 270.528C856.291 270.023 855.728 269.573 855.477 269.18C855.226 268.787 855.409 268.412 856.026 268.056C856.649 267.696 857.302 267.589 857.983 267.733C858.664 267.878 859.442 268.203 860.317 268.708C861.184 269.209 861.74 269.654 861.984 270.043C862.228 270.432 862.038 270.807 861.414 271.167C860.797 271.523 860.148 271.629 859.467 271.484C858.793 271.343 858.026 271.024 857.166 270.528ZM850.992 270.751C850.626 271.882 850.476 272.867 850.54 273.707C850.605 274.556 850.963 275.168 851.616 275.545C852.003 275.769 852.408 275.891 852.831 275.911C853.247 275.936 853.666 275.827 854.089 275.582C854.527 275.33 854.713 275.057 854.649 274.763C854.591 274.473 854.315 274.169 853.82 273.85L855.014 273.161C855.832 273.691 856.229 274.227 856.208 274.769C856.179 275.315 855.789 275.806 855.036 276.24C854.297 276.667 853.523 276.886 852.713 276.899C851.902 276.919 851.153 276.731 850.465 276.334C849.913 276.015 849.526 275.593 849.303 275.067C849.074 274.545 848.981 273.995 849.024 273.415C849.074 272.84 849.207 272.291 849.422 271.77L845.819 273.85L844.819 273.272L850.088 270.23L850.992 270.751ZM848.364 277.895C848.736 278.11 848.977 278.364 849.084 278.658C849.192 278.952 849.142 279.267 848.934 279.602C848.719 279.942 848.331 280.273 847.772 280.596C847.213 280.918 846.643 281.14 846.062 281.26C845.474 281.384 844.926 281.415 844.417 281.353C843.9 281.295 843.456 281.159 843.083 280.943C842.667 280.703 842.42 280.432 842.341 280.13C842.255 279.832 842.359 279.519 842.653 279.192C842.022 279.383 841.409 279.455 840.814 279.41C840.226 279.368 839.692 279.209 839.211 278.931C838.473 278.505 838.157 278.021 838.265 277.478C838.38 276.94 838.86 276.427 839.706 275.939C840.552 275.45 841.441 275.173 842.373 275.107C843.305 275.049 844.141 275.233 844.879 275.659C845.359 275.937 845.635 276.245 845.707 276.584C845.786 276.928 845.661 277.282 845.331 277.646C845.897 277.476 846.442 277.414 846.965 277.46C847.482 277.51 847.948 277.654 848.364 277.895ZM846.955 278.484C846.568 278.261 846.141 278.159 845.675 278.18C845.209 278.209 844.757 278.35 844.32 278.602C843.882 278.855 843.639 279.116 843.588 279.385C843.545 279.658 843.718 279.906 844.105 280.13C844.492 280.353 844.926 280.451 845.406 280.422C845.879 280.397 846.331 280.26 846.761 280.012C847.191 279.764 847.428 279.503 847.471 279.23C847.514 278.956 847.342 278.708 846.955 278.484ZM843.75 276.386C843.312 276.133 842.821 276.019 842.276 276.044C841.739 276.073 841.219 276.232 840.717 276.522C840.215 276.812 839.939 277.112 839.889 277.423C839.846 277.737 840.043 278.021 840.48 278.273C840.925 278.53 841.412 278.633 841.943 278.584C842.474 278.542 842.979 278.383 843.459 278.106C843.933 277.832 844.209 277.541 844.288 277.23C844.366 276.92 844.187 276.638 843.75 276.386Z" fill="white"/>
</g>
<g id="WAK SUNARI_2" filter="url(#filter8_d_99520_92)">
<path d="M762.773 323.924L756.449 326.118L755.445 325.539L758.292 322.662L753.309 324.305L752.305 323.726L756.105 320.075L757.001 320.592L753.76 323.473L758.987 321.739L759.89 322.26L756.886 325.278L761.877 323.407L762.773 323.924ZM763.275 328.793L761.139 327.559L759.655 327.969L758.78 327.464L765.627 325.663L766.566 326.206L763.44 330.155L762.566 329.65L763.275 328.793ZM763.677 328.296L765.204 326.446L761.999 327.327L763.677 328.296ZM768.908 330.356L768.578 333.121L767.582 332.546L767.926 330.037L765.581 331.391L764.764 330.919L769.826 327.997L770.643 328.468L768.328 329.806L772.651 329.628L773.64 330.199L768.908 330.356ZM776.978 336.415C776.73 336.558 776.438 336.657 776.104 336.713C775.774 336.765 775.423 336.758 775.05 336.692C774.677 336.626 774.314 336.49 773.96 336.286C773.616 336.088 773.367 335.875 773.214 335.649C773.066 335.42 773.021 335.195 773.078 334.974C773.135 334.753 773.296 334.553 773.558 334.374L774.433 334.879C774.237 335.02 774.142 335.182 774.146 335.367C774.156 335.555 774.299 335.729 774.577 335.889C774.825 336.032 775.083 336.104 775.351 336.104C775.623 336.107 775.865 336.048 776.075 335.926C776.257 335.821 776.355 335.707 776.369 335.582C776.388 335.456 776.357 335.33 776.276 335.206C776.195 335.082 776.068 334.92 775.896 334.721C775.681 334.481 775.523 334.274 775.423 334.101C775.327 333.929 775.305 333.749 775.358 333.558C775.411 333.368 775.592 333.183 775.903 333.004C776.175 332.846 776.481 332.747 776.821 332.706C777.16 332.664 777.509 332.683 777.868 332.763C778.231 332.841 778.575 332.973 778.9 333.161C779.416 333.459 779.701 333.767 779.753 334.084C779.811 334.404 779.66 334.692 779.301 334.949L778.42 334.44C778.577 334.31 778.649 334.164 778.635 334.001C778.63 333.838 778.501 333.684 778.248 333.538C778.018 333.405 777.774 333.333 777.516 333.322C777.263 333.309 777.026 333.365 776.806 333.492C776.634 333.591 776.539 333.702 776.52 333.823C776.505 333.942 776.536 334.062 776.613 334.183C776.699 334.305 776.825 334.463 776.993 334.659C777.213 334.902 777.37 335.112 777.466 335.289C777.571 335.465 777.595 335.65 777.538 335.843C777.485 336.039 777.299 336.23 776.978 336.415ZM783.009 335.608L780.005 337.342C779.556 337.602 779.319 337.851 779.295 338.092C779.276 338.334 779.446 338.559 779.804 338.766C780.158 338.971 780.543 339.066 780.959 339.052C781.379 339.041 781.814 338.906 782.264 338.646L785.268 336.912L786.085 337.384L783.081 339.118C782.388 339.518 781.683 339.718 780.966 339.718C780.254 339.716 779.604 339.545 779.016 339.205C778.432 338.868 778.141 338.496 778.141 338.087C778.146 337.676 778.495 337.271 779.188 336.87L782.192 335.136L783.009 335.608ZM786.787 343.634L785.97 343.162L787.246 339.586L783.51 341.742L782.693 341.27L787.748 338.352L788.565 338.824L787.275 342.409L791.024 340.244L791.842 340.716L786.787 343.634ZM792.609 345.729L790.472 344.495L788.988 344.905L788.113 344.4L794.961 342.599L795.9 343.141L792.774 347.09L791.899 346.585L792.609 345.729ZM793.01 345.232L794.538 343.381L791.333 344.263L793.01 345.232ZM796.758 349.391L797.518 347.495L796.937 347.159L794.915 348.327L794.098 347.855L799.16 344.932L800.945 345.963C801.523 346.297 801.82 346.631 801.834 346.965C801.853 347.301 801.631 347.604 801.167 347.871C800.77 348.1 800.333 348.223 799.855 348.24C799.382 348.259 798.899 348.168 798.407 347.967L797.675 349.92L796.758 349.391ZM797.518 346.824L798.421 347.346C799.081 347.726 799.702 347.749 800.285 347.412C800.562 347.252 800.696 347.081 800.687 346.899C800.687 346.716 800.517 346.527 800.178 346.331L799.274 345.81L797.518 346.824ZM804.979 348.292L799.917 351.215L799.1 350.743L804.162 347.82L804.979 348.292Z" fill="white"/>
</g>
<g id="06/2024_2" filter="url(#filter9_d_99520_92)">
<path d="M741.867 328.415C741.19 328.806 740.774 329.175 740.618 329.522C740.463 329.869 740.66 330.202 741.21 330.519C741.76 330.836 742.335 330.95 742.937 330.86C743.542 330.773 744.183 330.534 744.861 330.143C745.53 329.757 745.94 329.389 746.091 329.039C746.247 328.692 746.05 328.36 745.5 328.042C744.95 327.725 744.375 327.611 743.773 327.701C743.176 327.788 742.54 328.026 741.867 328.415ZM744.323 329.832C743.976 330.033 743.66 330.186 743.373 330.291C743.094 330.397 742.815 330.45 742.536 330.45C742.257 330.45 741.987 330.374 741.724 330.222C741.465 330.073 741.335 329.918 741.335 329.757C741.335 329.596 741.425 329.433 741.604 329.27C741.791 329.107 742.058 328.925 742.405 328.725C742.747 328.527 743.058 328.376 743.337 328.27C743.62 328.166 743.899 328.116 744.173 328.118C744.452 328.118 744.721 328.193 744.98 328.342C745.243 328.494 745.374 328.65 745.374 328.811C745.378 328.97 745.289 329.13 745.106 329.291C744.926 329.454 744.665 329.635 744.323 329.832ZM748.871 331.355C749.09 331.191 749.198 331.03 749.194 330.872C749.198 330.713 749.078 330.564 748.835 330.423C748.497 330.228 748.108 330.155 747.67 330.206C747.236 330.259 746.734 330.45 746.165 330.779L745.95 330.91C746.248 330.806 746.575 330.776 746.929 330.82C747.288 330.861 747.613 330.966 747.903 331.134C748.322 331.375 748.523 331.636 748.507 331.917C748.495 332.2 748.264 332.471 747.814 332.731C747.551 332.883 747.26 332.991 746.941 333.055C746.627 333.117 746.298 333.123 745.955 333.073C745.621 333.022 745.296 332.906 744.982 332.724C744.38 332.377 744.155 332.028 744.306 331.679C744.462 331.332 744.864 330.971 745.513 330.596C746.262 330.163 746.943 329.908 747.557 329.83C748.178 329.752 748.762 329.87 749.307 330.185C749.71 330.418 749.905 330.661 749.893 330.917C749.885 331.174 749.718 331.42 749.391 331.655L748.871 331.355ZM745.454 331.265C745.163 331.433 745.002 331.623 744.97 331.834C744.946 332.046 745.103 332.249 745.442 332.445C745.72 332.606 746.025 332.687 746.356 332.69C746.69 332.69 747.007 332.603 747.306 332.431C747.628 332.245 747.79 332.055 747.79 331.862C747.794 331.666 747.648 331.483 747.354 331.313C747.186 331.217 746.993 331.144 746.774 331.096C746.555 331.048 746.328 331.036 746.093 331.061C745.862 331.084 745.649 331.152 745.454 331.265ZM754.608 331.734L746.321 334.629L745.795 334.325L754.076 331.427L754.608 331.734ZM749.673 334.901C750.804 335.03 751.796 335.083 752.648 335.06C753.505 335.035 754.126 334.911 754.512 334.687C754.751 334.549 754.881 334.403 754.901 334.249C754.929 334.095 754.807 333.94 754.536 333.784C754.257 333.623 753.957 333.553 753.634 333.573C753.315 333.592 752.993 333.686 752.666 333.856L752.128 333.546C752.626 333.29 753.132 333.166 753.646 333.173C754.164 333.178 754.63 333.3 755.044 333.539C755.439 333.766 755.646 334.008 755.666 334.263C755.685 334.518 755.502 334.758 755.116 334.981C754.797 335.165 754.369 335.292 753.831 335.364C753.301 335.435 752.74 335.462 752.146 335.446C751.561 335.43 751.007 335.384 750.485 335.308L752.624 336.543L752.176 336.802L749.278 335.129L749.673 334.901ZM754.867 335.92C754.19 336.311 753.774 336.68 753.618 337.028C753.463 337.375 753.66 337.707 754.21 338.025C754.76 338.342 755.335 338.456 755.937 338.366C756.542 338.279 757.183 338.04 757.861 337.649C758.53 337.262 758.94 336.894 759.091 336.545C759.247 336.197 759.05 335.865 758.5 335.548C757.95 335.23 757.375 335.117 756.773 335.206C756.176 335.294 755.54 335.532 754.867 335.92ZM757.323 337.338C756.976 337.538 756.66 337.691 756.373 337.797C756.094 337.903 755.815 337.956 755.536 337.956C755.258 337.956 754.987 337.88 754.724 337.728C754.465 337.578 754.335 337.423 754.335 337.262C754.335 337.101 754.425 336.939 754.604 336.776C754.792 336.613 755.058 336.431 755.405 336.231C755.748 336.033 756.058 335.881 756.337 335.775C756.62 335.672 756.899 335.621 757.174 335.624C757.452 335.624 757.721 335.698 757.98 335.848C758.243 336 758.374 336.156 758.374 336.317C758.378 336.476 758.289 336.636 758.106 336.797C757.926 336.96 757.665 337.14 757.323 337.338ZM756.733 338.978C757.864 339.106 758.856 339.159 759.708 339.136C760.565 339.111 761.186 338.987 761.573 338.764C761.812 338.626 761.941 338.48 761.961 338.326C761.989 338.171 761.867 338.016 761.596 337.86C761.318 337.699 761.017 337.629 760.694 337.649C760.376 337.668 760.053 337.762 759.726 337.932L759.189 337.622C759.687 337.367 760.192 337.242 760.706 337.249C761.224 337.254 761.69 337.376 762.104 337.615C762.499 337.843 762.706 338.084 762.726 338.339C762.746 338.595 762.562 338.834 762.176 339.057C761.857 339.241 761.429 339.369 760.891 339.44C760.362 339.511 759.8 339.539 759.207 339.523C758.621 339.506 758.067 339.46 757.546 339.385L759.685 340.62L759.236 340.878L756.339 339.205L756.733 338.978ZM760.607 340.579L761.061 340.317L766.044 339.938L766.63 340.276L763.827 341.894L764.449 342.253L763.977 342.525L763.355 342.166L762.387 342.725L761.838 342.408L762.806 341.849L760.607 340.579ZM765.453 340.362L761.653 340.638L763.314 341.597L765.453 340.362Z" fill="white" fill-opacity="0.7" shape-rendering="crispEdges"/>
</g>
<g id="Group 481761_2">
<path id="Vector" d="M870.964 334.273C871.217 334.127 871.627 334.127 871.88 334.273L876.715 337.065C876.968 337.211 876.968 337.447 876.715 337.593L874.436 338.909C874.183 339.055 873.773 339.055 873.52 338.909L868.684 336.118C868.431 335.972 868.431 335.735 868.684 335.589L870.964 334.273Z" fill="white"/>
<path id="Vector_2" d="M850.386 328.296C850.639 328.15 851.05 328.15 851.303 328.296L856.138 331.088C856.391 331.234 856.391 331.47 856.138 331.617L853.859 332.932C853.606 333.078 853.196 333.078 852.943 332.932L848.107 330.141C847.854 329.995 847.854 329.758 848.107 329.612L850.386 328.296Z" fill="white"/>
<path id="Vector_3" d="M855.499 325.344C855.752 325.198 856.162 325.198 856.415 325.344L861.25 328.136C861.503 328.282 861.503 328.519 861.25 328.665L858.971 329.981C858.718 330.127 858.308 330.127 858.055 329.981L853.22 327.189C852.967 327.043 852.967 326.806 853.22 326.66L855.499 325.344Z" fill="white"/>
<path id="Vector_4" d="M861.89 330.51C862.143 330.364 862.553 330.364 862.806 330.51L867.769 333.376C868.022 333.522 868.022 333.758 867.769 333.905L862.934 336.696C862.681 336.842 862.271 336.842 862.018 336.696L857.055 333.831C856.802 333.685 856.802 333.448 857.055 333.302L861.89 330.51Z" fill="white"/>
<path id="Vector_5" d="M865.853 337.226C866.106 337.08 866.516 337.08 866.769 337.226L871.605 340.018C871.858 340.164 871.858 340.4 871.605 340.546L869.326 341.862C869.073 342.008 868.663 342.008 868.41 341.862L863.574 339.071C863.321 338.925 863.321 338.688 863.574 338.542L865.853 337.226Z" fill="white"/>
<path id="Vector_6" d="M864.584 327.847C865.114 328.153 865.114 328.648 864.584 328.954V328.954C864.408 329.056 864.408 329.221 864.584 329.323L865.788 330.018C866.041 330.164 866.451 330.164 866.704 330.018L868.483 328.991C868.737 328.844 869.082 328.762 869.441 328.762V328.762C869.648 328.762 869.752 328.617 869.606 328.532L860.249 323.13C859.996 322.984 859.586 322.984 859.333 323.13L858.332 323.708C858.079 323.854 858.079 324.091 858.332 324.237L864.584 327.847Z" fill="white"/>
<path id="Vector_7" d="M870.271 330.327C870.099 330.327 869.934 330.366 869.813 330.436L868.621 331.125C868.368 331.271 868.368 331.507 868.621 331.653L869.825 332.348C870.001 332.45 870.287 332.45 870.464 332.348V332.348C870.993 332.043 871.851 332.043 872.381 332.348L878.633 335.958C878.886 336.104 879.296 336.104 879.549 335.958L880.55 335.38C880.803 335.234 880.803 334.997 880.55 334.851L872.904 330.436C872.782 330.366 872.617 330.327 872.446 330.327L870.271 330.327Z" fill="white"/>
<path id="Vector_8" d="M860.24 339.359C859.711 339.054 859.711 338.558 860.24 338.253V338.253C860.416 338.151 860.416 337.986 860.24 337.884L859.036 337.189C858.783 337.043 858.373 337.043 858.12 337.189L856.342 338.216C856.087 338.362 855.743 338.445 855.383 338.445V338.445C855.176 338.445 855.072 338.59 855.219 338.674L864.575 344.076C864.828 344.222 865.238 344.222 865.491 344.076L866.492 343.498C866.745 343.352 866.745 343.115 866.492 342.969L860.24 339.359Z" fill="white"/>
<path id="Vector_9" d="M854.552 336.879C854.724 336.879 854.888 336.839 855.01 336.769L856.202 336.081C856.455 335.935 856.455 335.698 856.202 335.552L854.998 334.857C854.822 334.755 854.536 334.755 854.359 334.857V334.857C853.83 335.163 852.971 335.163 852.442 334.857L846.19 331.248C845.937 331.102 845.527 331.102 845.274 331.248L844.273 331.826C844.02 331.972 844.02 332.208 844.273 332.355L851.919 336.769C852.041 336.839 852.205 336.879 852.377 336.879L854.552 336.879Z" fill="white"/>
<rect id="Rectangle 14295_2" x="-1.57639e-08" y="0.264474" width="24.3316" height="18.5132" rx="0.793421" transform="matrix(0.866025 0.5 -0.866025 0.5 860.021 322.705)" stroke="white" stroke-width="0.528947"/>
</g>
<g id="Conection Icon_2" style="mix-blend-mode:overlay">
<path d="M848.588 342.779C847.39 342.62 844.927 341.943 844.655 340.513M846.963 345.345C845.105 345.07 841.152 343.906 840.204 341.45M845.744 347.746C843.27 347.355 837.9 345.709 836.22 342.258M844.012 350.09C840.997 349.679 834.404 347.737 832.152 343.257" stroke="white" stroke-width="1.37985" stroke-linecap="round" stroke-linejoin="round"/>
</g>
<path id="Subtract" fill-rule="evenodd" clip-rule="evenodd" d="M999.536 342.186L1049.69 313.23C1048.7 310.951 1047.42 308.708 1045.85 306.52C1042.33 301.61 1037.44 297.102 1031.4 293.163C1026.71 290.099 1021.34 287.38 1015.38 285.083C1001.78 279.835 985.783 277.034 969.42 277.034C953.057 277.034 937.062 279.835 923.457 285.083C909.852 290.332 899.248 297.792 892.986 306.52C887.11 314.71 885.305 323.672 887.743 332.402L921.997 352.178L940.17 341.686C934.385 338.346 930.445 334.091 928.849 329.458C927.253 324.825 928.072 320.023 931.203 315.659C934.334 311.295 939.636 307.565 946.438 304.941C953.241 302.317 961.239 300.916 969.42 300.916C977.601 300.916 985.599 302.317 992.402 304.941C994.665 305.814 996.763 306.81 998.67 307.911C1002.13 309.911 1004.97 312.259 1007.02 314.848C1007.24 315.116 1007.44 315.386 1007.64 315.659C1009.59 318.387 1010.65 321.285 1010.77 324.207C1010.78 324.404 1010.79 324.601 1010.79 324.799C1010.79 326.355 1010.52 327.916 1009.99 329.458C1009.49 330.906 1008.76 332.316 1007.82 333.674C1007.76 333.762 1007.7 333.85 1007.64 333.938C1005.57 336.822 1002.53 339.458 998.67 341.686L999.536 342.186ZM951.138 335.353C941.041 329.524 941.041 320.073 951.138 314.244C961.234 308.415 977.604 308.415 987.7 314.244C997.797 320.073 997.797 329.524 987.7 335.353C982.741 338.217 976.267 339.674 969.768 339.724C969.651 339.725 969.535 339.725 969.419 339.725C969.302 339.725 969.186 339.725 969.07 339.724C962.57 339.674 956.097 338.217 951.138 335.353Z" fill="url(#paint11_linear_99520_92)"/>
</g>
</g>
<g id="bubbles">
<path id="b3" d="M722.813 241.884C694.926 240.009 673.835 215.872 675.71 188.219C677.819 160.332 701.722 139.241 729.609 141.116C757.262 143.225 778.353 167.128 776.478 195.015C774.603 222.668 750.466 243.759 722.813 241.884Z" fill="url(#paint12_radial_99520_92)"/>
<path id="b2" d="M1080.38 579.922C1061.61 578.66 1047.41 562.409 1048.67 543.791C1050.09 525.016 1066.18 510.816 1084.96 512.078C1103.58 513.498 1117.78 529.591 1116.52 548.367C1115.25 566.984 1099 581.184 1080.38 579.922Z" fill="url(#paint13_radial_99520_92)"/>
<path id="b1" d="M753.554 613.963C744.719 613.369 738.036 605.722 738.63 596.961C739.299 588.125 746.872 581.443 755.707 582.037C764.469 582.705 771.151 590.278 770.557 599.114C769.963 607.875 762.316 614.557 753.554 613.963Z" fill="url(#paint14_radial_99520_92)"/>
</g>
<g id="Vector 16" filter="url(#filter10_f_99520_92)">
<path d="M664 214L838.468 785H1042.61L1242 214H664Z" fill="url(#paint15_linear_99520_92)"/>
<path d="M664 214L838.468 785H1042.61L1242 214H664Z" stroke="black"/>
</g>
<g id="Ellipse 2332" filter="url(#filter11_f_99520_92)">
<ellipse cx="952.906" cy="466.5" rx="202.5" ry="235.5" fill="white" fill-opacity="0.6"/>
</g>
</g>
<defs>
<filter id="filter0_b_99520_92" x="721.148" y="359.858" width="397.811" height="237.284" filterUnits="userSpaceOnUse" color-interpolation-filters="sRGB">
<feFlood flood-opacity="0" result="BackgroundImageFix"/>
<feGaussianBlur in="BackgroundImageFix" stdDeviation="4.5"/>
<feComposite in2="SourceAlpha" operator="in" result="effect1_backgroundBlur_99520_92"/>
<feBlend mode="normal" in="SourceGraphic" in2="effect1_backgroundBlur_99520_92" result="shape"/>
</filter>
<filter id="filter1_d_99520_92" x="675.002" y="224.042" width="526.318" height="363.041" filterUnits="userSpaceOnUse" color-interpolation-filters="sRGB">
<feFlood flood-opacity="0" result="BackgroundImageFix"/>
<feColorMatrix in="SourceAlpha" type="matrix" values="0 0 0 0 0 0 0 0 0 0 0 0 0 0 0 0 0 0 127 0" result="hardAlpha"/>
<feOffset dy="9"/>
<feGaussianBlur stdDeviation="35"/>
<feComposite in2="hardAlpha" operator="out"/>
<feColorMatrix type="matrix" values="0 0 0 0 0 0 0 0 0 0 0 0 0 0 0 0 0 0 0.25 0"/>
<feBlend mode="normal" in2="BackgroundImageFix" result="effect1_dropShadow_99520_92"/>
<feBlend mode="normal" in="SourceGraphic" in2="effect1_dropShadow_99520_92" result="shape"/>
</filter>
<filter id="filter2_d_99520_92" x="775.401" y="412.037" width="56.0509" height="33.2063" filterUnits="userSpaceOnUse" color-interpolation-filters="sRGB">
<feFlood flood-opacity="0" result="BackgroundImageFix"/>
<feColorMatrix in="SourceAlpha" type="matrix" values="0 0 0 0 0 0 0 0 0 0 0 0 0 0 0 0 0 0 127 0" result="hardAlpha"/>
<feOffset dy="1"/>
<feGaussianBlur stdDeviation="0.5"/>
<feComposite in2="hardAlpha" operator="out"/>
<feColorMatrix type="matrix" values="0 0 0 0 0 0 0 0 0 0 0 0 0 0 0 0 0 0 0.15 0"/>
<feBlend mode="normal" in2="BackgroundImageFix" result="effect1_dropShadow_99520_92"/>
<feBlend mode="normal" in="SourceGraphic" in2="effect1_dropShadow_99520_92" result="shape"/>
</filter>
<filter id="filter3_d_99520_92" x="763.121" y="418.397" width="31.9248" height="19.2771" filterUnits="userSpaceOnUse" color-interpolation-filters="sRGB">
<feFlood flood-opacity="0" result="BackgroundImageFix"/>
<feColorMatrix in="SourceAlpha" type="matrix" values="0 0 0 0 0 0 0 0 0 0 0 0 0 0 0 0 0 0 127 0" result="hardAlpha"/>
<feOffset dy="1"/>
<feGaussianBlur stdDeviation="0.5"/>
<feComposite in2="hardAlpha" operator="out"/>
<feColorMatrix type="matrix" values="0 0 0 0 0 0 0 0 0 0 0 0 0 0 0 0 0 0 0.15 0"/>
<feBlend mode="normal" in2="BackgroundImageFix" result="effect1_dropShadow_99520_92"/>
<feBlend mode="normal" in="SourceGraphic" in2="effect1_dropShadow_99520_92" result="shape"/>
</filter>
<filter id="filter4_d_99520_92" x="683.594" y="175.042" width="466.318" height="303.041" filterUnits="userSpaceOnUse" color-interpolation-filters="sRGB">
<feFlood flood-opacity="0" result="BackgroundImageFix"/>
<feColorMatrix in="SourceAlpha" type="matrix" values="0 0 0 0 0 0 0 0 0 0 0 0 0 0 0 0 0 0 127 0" result="hardAlpha"/>
<feOffset dx="4" dy="22"/>
<feGaussianBlur stdDeviation="20"/>
<feComposite in2="hardAlpha" operator="out"/>
<feColorMatrix type="matrix" values="0 0 0 0 0 0 0 0 0 0 0 0 0 0 0 0 0 0 0.25 0"/>
<feBlend mode="normal" in2="BackgroundImageFix" result="effect1_dropShadow_99520_92"/>
<feBlend mode="normal" in="SourceGraphic" in2="effect1_dropShadow_99520_92" result="shape"/>
</filter>
<filter id="filter5_b_99520_92" x="712.594" y="186.042" width="400.318" height="237.041" filterUnits="userSpaceOnUse" color-interpolation-filters="sRGB">
<feFlood flood-opacity="0" result="BackgroundImageFix"/>
<feGaussianBlur in="BackgroundImageFix" stdDeviation="3.5"/>
<feComposite in2="SourceAlpha" operator="in" result="effect1_backgroundBlur_99520_92"/>
<feBlend mode="normal" in="SourceGraphic" in2="effect1_backgroundBlur_99520_92" result="shape"/>
</filter>
<filter id="filter6_b_99520_92" x="712.594" y="272.38" width="250.776" height="150.703" filterUnits="userSpaceOnUse" color-interpolation-filters="sRGB">
<feFlood flood-opacity="0" result="BackgroundImageFix"/>
<feGaussianBlur in="BackgroundImageFix" stdDeviation="3.5"/>
<feComposite in2="SourceAlpha" operator="in" result="effect1_backgroundBlur_99520_92"/>
<feBlend mode="normal" in="SourceGraphic" in2="effect1_backgroundBlur_99520_92" result="shape"/>
</filter>
<filter id="filter7_d_99520_92" x="836.338" y="208.531" width="128.717" height="74.7618" filterUnits="userSpaceOnUse" color-interpolation-filters="sRGB">
<feFlood flood-opacity="0" result="BackgroundImageFix"/>
<feColorMatrix in="SourceAlpha" type="matrix" values="0 0 0 0 0 0 0 0 0 0 0 0 0 0 0 0 0 0 127 0" result="hardAlpha"/>
<feOffset dy="0.528947"/>
<feGaussianBlur stdDeviation="0.264474"/>
<feComposite in2="hardAlpha" operator="out"/>
<feColorMatrix type="matrix" values="0 0 0 0 0 0 0 0 0 0 0 0 0 0 0 0 0 0 0.2 0"/>
<feBlend mode="normal" in2="BackgroundImageFix" result="effect1_dropShadow_99520_92"/>
<feBlend mode="normal" in="SourceGraphic" in2="effect1_dropShadow_99520_92" result="shape"/>
</filter>
<filter id="filter8_d_99520_92" x="749.993" y="320.037" width="56.0509" height="33.2063" filterUnits="userSpaceOnUse" color-interpolation-filters="sRGB">
<feFlood flood-opacity="0" result="BackgroundImageFix"/>
<feColorMatrix in="SourceAlpha" type="matrix" values="0 0 0 0 0 0 0 0 0 0 0 0 0 0 0 0 0 0 127 0" result="hardAlpha"/>
<feOffset dy="1"/>
<feGaussianBlur stdDeviation="0.5"/>
<feComposite in2="hardAlpha" operator="out"/>
<feColorMatrix type="matrix" values="0 0 0 0 0 0 0 0 0 0 0 0 0 0 0 0 0 0 0.15 0"/>
<feBlend mode="normal" in2="BackgroundImageFix" result="effect1_dropShadow_99520_92"/>
<feBlend mode="normal" in="SourceGraphic" in2="effect1_dropShadow_99520_92" result="shape"/>
</filter>
<filter id="filter9_d_99520_92" x="737.712" y="326.397" width="31.9248" height="19.2771" filterUnits="userSpaceOnUse" color-interpolation-filters="sRGB">
<feFlood flood-opacity="0" result="BackgroundImageFix"/>
<feColorMatrix in="SourceAlpha" type="matrix" values="0 0 0 0 0 0 0 0 0 0 0 0 0 0 0 0 0 0 127 0" result="hardAlpha"/>
<feOffset dy="1"/>
<feGaussianBlur stdDeviation="0.5"/>
<feComposite in2="hardAlpha" operator="out"/>
<feColorMatrix type="matrix" values="0 0 0 0 0 0 0 0 0 0 0 0 0 0 0 0 0 0 0.15 0"/>
<feBlend mode="normal" in2="BackgroundImageFix" result="effect1_dropShadow_99520_92"/>
<feBlend mode="normal" in="SourceGraphic" in2="effect1_dropShadow_99520_92" result="shape"/>
</filter>
<filter id="filter10_f_99520_92" x="540.324" y="90.5" width="825.38" height="818" filterUnits="userSpaceOnUse" color-interpolation-filters="sRGB">
<feFlood flood-opacity="0" result="BackgroundImageFix"/>
<feBlend mode="normal" in="SourceGraphic" in2="BackgroundImageFix" result="shape"/>
<feGaussianBlur stdDeviation="61.5" result="effect1_foregroundBlur_99520_92"/>
</filter>
<filter id="filter11_f_99520_92" x="0.40625" y="-519" width="1905" height="1971" filterUnits="userSpaceOnUse" color-interpolation-filters="sRGB">
<feFlood flood-opacity="0" result="BackgroundImageFix"/>
<feBlend mode="normal" in="SourceGraphic" in2="BackgroundImageFix" result="shape"/>
<feGaussianBlur stdDeviation="375" result="effect1_foregroundBlur_99520_92"/>
</filter>
<linearGradient id="paint0_linear_99520_92" x1="-55.9589" y1="-198.041" x2="78.9749" y2="295.841" gradientUnits="userSpaceOnUse">
<stop stop-color="white" stop-opacity="0.7"/>
<stop offset="0.667914" stop-color="#F9F9F9" stop-opacity="0.175336"/>
<stop offset="1" stop-color="#F9F9F9" stop-opacity="0.1"/>
<stop offset="1" stop-color="white" stop-opacity="0.2"/>
</linearGradient>
<linearGradient id="paint1_linear_99520_92" x1="-3.5" y1="-9.24422e-07" x2="175" y2="284" gradientUnits="userSpaceOnUse">
<stop stop-color="white"/>
<stop offset="1" stop-color="white" stop-opacity="0.1"/>
</linearGradient>
<linearGradient id="paint2_linear_99520_92" x1="0" y1="0" x2="178" y2="284.248" gradientUnits="userSpaceOnUse">
<stop stop-color="white" stop-opacity="0.4"/>
<stop offset="1" stop-color="white" stop-opacity="0.1"/>
</linearGradient>
<linearGradient id="paint3_linear_99520_92" x1="-1.21225e-06" y1="9.5" x2="167.5" y2="284" gradientUnits="userSpaceOnUse">
<stop stop-color="white"/>
<stop offset="1" stop-color="white" stop-opacity="0.1"/>
</linearGradient>
<linearGradient id="paint4_linear_99520_92" x1="9.89486" y1="0" x2="9.89486" y2="19.7897" gradientUnits="userSpaceOnUse">
<stop stop-color="white"/>
<stop offset="0.479167" stop-opacity="0.5"/>
<stop offset="0.9375" stop-color="white"/>
</linearGradient>
<linearGradient id="paint5_linear_99520_92" x1="9.89486" y1="0" x2="9.89486" y2="19.7897" gradientUnits="userSpaceOnUse">
<stop stop-color="white"/>
<stop offset="0.479167" stop-opacity="0.5"/>
<stop offset="0.9375" stop-color="white"/>
</linearGradient>
<linearGradient id="paint6_linear_99520_92" x1="0" y1="0" x2="178" y2="284.248" gradientUnits="userSpaceOnUse">
<stop stop-color="white" stop-opacity="0.4"/>
<stop offset="1" stop-color="white" stop-opacity="0.1"/>
</linearGradient>
<linearGradient id="paint7_linear_99520_92" x1="-1.21225e-06" y1="9.5" x2="167.5" y2="284" gradientUnits="userSpaceOnUse">
<stop stop-color="white"/>
<stop offset="1" stop-color="white" stop-opacity="0.1"/>
</linearGradient>
<linearGradient id="paint8_linear_99520_92" x1="781.092" y1="99.5" x2="947.66" y2="440.832" gradientUnits="userSpaceOnUse">
<stop stop-color="#5AE5EA"/>
<stop offset="0.29487" stop-color="#5AE5EA" stop-opacity="0"/>
<stop offset="1" stop-color="#5AE5EA"/>
</linearGradient>
<linearGradient id="paint9_linear_99520_92" x1="9.89486" y1="0" x2="9.89486" y2="19.7897" gradientUnits="userSpaceOnUse">
<stop stop-color="white"/>
<stop offset="0.479167" stop-opacity="0.5"/>
<stop offset="0.9375" stop-color="white"/>
</linearGradient>
<linearGradient id="paint10_linear_99520_92" x1="9.89486" y1="0" x2="9.89486" y2="19.7897" gradientUnits="userSpaceOnUse">
<stop stop-color="white"/>
<stop offset="0.479167" stop-opacity="0.5"/>
<stop offset="0.9375" stop-color="white"/>
</linearGradient>
<linearGradient id="paint11_linear_99520_92" x1="991.191" y1="239.934" x2="989.303" y2="347.043" gradientUnits="userSpaceOnUse">
<stop stop-color="white"/>
<stop offset="1" stop-color="white" stop-opacity="0"/>
</linearGradient>
<radialGradient id="paint12_radial_99520_92" cx="0" cy="0" r="1" gradientUnits="userSpaceOnUse" gradientTransform="translate(747.462 177.049) rotate(93.8705) scale(64.9684)">
<stop offset="0.00887753" stop-color="#DEF9FA"/>
<stop offset="0.1723" stop-color="#BEF3F5"/>
<stop offset="0.4204" stop-color="#9DEDF0"/>
<stop offset="0.5512" stop-color="#7DE7EB"/>
<stop offset="0.7154" stop-color="#5CE1E6"/>
<stop offset="1" stop-color="#33BBCF"/>
</radialGradient>
<radialGradient id="paint13_radial_99520_92" cx="0" cy="0" r="1" gradientUnits="userSpaceOnUse" gradientTransform="translate(1096.98 536.271) rotate(93.8705) scale(43.7411)">
<stop offset="0.00887753" stop-color="#DEF9FA"/>
<stop offset="0.1723" stop-color="#BEF3F5"/>
<stop offset="0.4204" stop-color="#9DEDF0"/>
<stop offset="0.5512" stop-color="#7DE7EB"/>
<stop offset="0.7154" stop-color="#5CE1E6"/>
<stop offset="1" stop-color="#33BBCF"/>
</radialGradient>
<radialGradient id="paint14_radial_99520_92" cx="0" cy="0" r="1" gradientUnits="userSpaceOnUse" gradientTransform="translate(761.364 593.421) rotate(93.8705) scale(20.5841)">
<stop offset="0.00887753" stop-color="#DEF9FA"/>
<stop offset="0.1723" stop-color="#BEF3F5"/>
<stop offset="0.4204" stop-color="#9DEDF0"/>
<stop offset="0.5512" stop-color="#7DE7EB"/>
<stop offset="0.7154" stop-color="#5CE1E6"/>
<stop offset="1" stop-color="#33BBCF"/>
</radialGradient>
<linearGradient id="paint15_linear_99520_92" x1="953" y1="214" x2="953" y2="785" gradientUnits="userSpaceOnUse">
<stop stop-color="#BCA5FF" stop-opacity="0"/>
<stop offset="1" stop-color="#214D76"/>
</linearGradient>
</defs>
</svg>
